<svg id="9532ac7a-8537-4f6c-bb00-bd9c93e2ebde" data-name="Layer 1" xmlns="http://www.w3.org/2000/svg" viewBox="0 0 34.03 34.03"><title>analytics_qualification</title><g opacity="0.8"><path d="M62.71,8.54l0,0v0l.06.25a4.57,4.57,0,0,1,.07.55q0,14.21,0,28.43A2.19,2.19,0,0,1,62.57,39l-.08.15h0c-.16,0-.16.12-.15.23h0a3,3,0,0,0-.36.23,2.66,2.66,0,0,1-1.78.73H51.89a2.47,2.47,0,0,1-.07-.51c0-.44.09-.88.14-1.32,0-.23.07-.47.07-.7,0-.8,0-1.59,0-2.39a.73.73,0,0,1,.2-.54l2.85-3c.27-.28.54-.55.82-.82.08-.08.15-.18.29-.08a.42.42,0,0,1,0,.1c0,1,0,2,0,3a.6.6,0,0,1-.17.35c-.23.26-.49.5-.73.74l-1.05,1.06a.54.54,0,0,0-.14.64l.33-.31,4.4-4.4c.28-.28.62-.52.52-1,0,0,0,0,0,0,0-.38.1-.76.12-1.14s0-1,0-1.53c0-.94-.11-.73.59-1.42.29-.3.3-.37,0-.67L60,26.24l-1.78-1.85a1.19,1.19,0,0,1-.14-.25,2,2,0,0,1,.3.2c.22.2.42.42.64.63a1.78,1.78,0,0,0,.25.16v-.5q0-8.6,0-17.19c0-.11,0-.22,0-.34s.09-.27.28-.27h.56A2.51,2.51,0,0,1,62.33,8a1.27,1.27,0,0,0,.24.2h0C62.56,8.3,62.54,8.46,62.71,8.54Z" transform="translate(-28.82 -6.54)" fill="#838383"/><path d="M62.57,8.16a1.27,1.27,0,0,1-.24-.2,2.51,2.51,0,0,0-2.21-1.14h-.56c-.18,0-.28.08-.28.27s0,.22,0,.34q0,8.6,0,17.19v.5A1.78,1.78,0,0,1,59,25c-.22-.21-.42-.43-.64-.63a2,2,0,0,0-.3-.2L58,24.06a.59.59,0,0,0-.45-.45c-.1-.09-.21-.17-.3-.27l-4.84-4.84c-.1-.1-.2-.18-.3-.27l-.89-.89,0-.08q0-2.27,0-4.55c0-1.13,0-2.26,0-3.39A2.73,2.73,0,0,1,54,6.54c2,0,4.05,0,6.08,0A2.67,2.67,0,0,1,62.49,8,1.19,1.19,0,0,1,62.57,8.16Z" transform="translate(-28.82 -6.54)" fill="#878787"/><path d="M39.56,28.89q0-4.37,0-8.75c0-.21,0-.42,0-.63a1.77,1.77,0,0,0,.18-.3,2.61,2.61,0,0,1,.74-1.05,2.82,2.82,0,0,1,1.85-.67c.39,0,.77,0,1.16,0,0,.21-.2.15-.33.14-.6,0-.57,0-.57.58q0,11.06,0,22.11h-5.3q0-5.15,0-10.29a1.29,1.29,0,0,1,.23-.9H39.3C39.47,29.14,39.6,29.11,39.56,28.89Z" transform="translate(-28.82 -6.54)" fill="#c3c3c3"/><path d="M29.2,39.21l-.08-.14,0-.06h0L29,38.84h0L29,38.69a4.2,4.2,0,0,1-.14-.75c0-2.12,0-4.25,0-6.37a4,4,0,0,1,.06-.48,1.27,1.27,0,0,0,.1-.14,4.75,4.75,0,0,1,.38-.72,2.8,2.8,0,0,1,2.27-1.08h1.23a2.23,2.23,0,0,0-.15,1q0,5.09,0,10.18c-.41,0-.82,0-1.22,0a2.45,2.45,0,0,1-1.61-.54,4.32,4.32,0,0,0-.47-.27h0C29.44,39.35,29.4,39.22,29.2,39.21Z" transform="translate(-28.82 -6.54)" fill="#c9c9c9"/><path d="M29.41,39.52a4.32,4.32,0,0,1,.47.27,2.45,2.45,0,0,0,1.61.54c.41,0,.82,0,1.22,0H51.22v.23H31.6a2.73,2.73,0,0,1-1.82-.64A3.68,3.68,0,0,1,29.41,39.52Z" transform="translate(-28.82 -6.54)" fill="#afafaf"/><path d="M43.53,17.49c-.39,0-.77,0-1.16,0a2.82,2.82,0,0,0-1.85.67,2.61,2.61,0,0,0-.74,1.05,1.77,1.77,0,0,1-.18.3,2.63,2.63,0,0,1,2.58-2.23h9l0,.08,0,.14H43.53Z" transform="translate(-28.82 -6.54)" fill="#d1d1d1"/><path d="M32.86,29.14H31.63a2.8,2.8,0,0,0-2.27,1.08,4.75,4.75,0,0,0-.38.72,1.27,1.27,0,0,1-.1.14,2.58,2.58,0,0,1,2-2.08,3.47,3.47,0,0,1,.74-.08h7.53l.45,0c0,.22-.09.24-.26.24H32.86Z" transform="translate(-28.82 -6.54)" fill="#d5d5d5"/><path d="M51.21,40.55v-.23h9A2.66,2.66,0,0,0,62,39.6a3,3,0,0,1,.36-.23,2.55,2.55,0,0,1-1.93,1.18,3,3,0,0,1-.41,0H51.47Z" transform="translate(-28.82 -6.54)" fill="#797979"/><path d="M29.2,39.21c.2,0,.24.14.22.31Z" transform="translate(-28.82 -6.54)" fill="#afafaf"/><path d="M62.71,8.54c-.17-.08-.15-.23-.14-.38Z" transform="translate(-28.82 -6.54)" fill="#878787"/><path d="M62.35,39.37c0-.11,0-.23.15-.23Z" transform="translate(-28.82 -6.54)" fill="#797979"/><path d="M62.78,8.83l-.06-.25Z" transform="translate(-28.82 -6.54)" fill="#878787"/><path d="M62.49,39.14l.08-.15Z" transform="translate(-28.82 -6.54)" fill="#797979"/><path d="M29,38.84l.08.16Z" transform="translate(-28.82 -6.54)" fill="#afafaf"/><path d="M29,38.69l.08.16Z" transform="translate(-28.82 -6.54)" fill="#afafaf"/><path d="M29.1,39l0,.06A0,0,0,0,1,29.1,39Z" transform="translate(-28.82 -6.54)" fill="#afafaf"/><path d="M51.89,40.33h-.22c0-1,0-2,.06-2.94s0-2.13.07-3.2c.09-1.36.06-2.73.09-4.09a2.74,2.74,0,0,1,0-.33c0-.23.08-.46.09-.69a6.85,6.85,0,0,0,0-.78,1.11,1.11,0,0,1,.32-.85c.42-.44.86-.87,1.29-1.29,0,0,.13,0,.23-.09A17.62,17.62,0,0,0,54,27.94a7.11,7.11,0,0,0,.23,1.9c.13-.11.25-.2.35-.3L58.07,26l.47-.48a1.75,1.75,0,0,0,.15-.16c.1-.13.06-.23-.1-.31l-.27.24-1.64,1.63c-.09.09-.16.23-.38.17,0-.18,0-.37,0-.56a.81.81,0,0,1,.29-.69c.36-.34.69-.71,1.06-1a.76.76,0,0,0,.3-.71H58l.07.07a1.19,1.19,0,0,0,.14.25L60,26.24l.11.11c.28.3.28.38,0,.67-.69.7-.58.48-.59,1.42,0,.51,0,1,0,1.53s-.08.76-.12,1.14c0,0,0,0,0,0,.1.48-.24.72-.52,1l-4.4,4.4-.33.31a.54.54,0,0,1,.14-.64l1.05-1.06c.25-.25.5-.48.73-.74a.6.6,0,0,0,.17-.35c0-1,0-2,0-3a.42.42,0,0,0,0-.1c-.13-.09-.21,0-.29.08-.27.27-.55.54-.82.82l-2.85,3a.73.73,0,0,0-.2.54c0,.8,0,1.59,0,2.39,0,.23,0,.47-.07.7,0,.44-.11.88-.14,1.32A2.47,2.47,0,0,0,51.89,40.33Z" transform="translate(-28.82 -6.54)" fill="#828282"/><path d="M57.94,24.06a.76.76,0,0,1-.3.71c-.37.33-.7.71-1.06,1a.81.81,0,0,0-.29.69c0,.19,0,.38,0,.56.22.06.29-.08.38-.17l1.64-1.63.27-.24c.16.09.2.19.1.31a1.75,1.75,0,0,1-.15.16l-.47.48-3.49,3.57c-.1.1-.22.19-.35.3a7.11,7.11,0,0,1-.23-1.9,17.62,17.62,0,0,1-.12-1.88c-.11,0-.19,0-.23.09-.44.43-.87.85-1.29,1.29a1.11,1.11,0,0,0-.32.85,6.85,6.85,0,0,1,0,.78c0,.23-.06.46-.09.69a2.74,2.74,0,0,0,0,.33c0,1.36,0,2.73-.09,4.09-.07,1.07,0,2.14-.07,3.2s0,2-.06,2.94h-.3c0-1.2,0-2.41.08-3.61,0-1,0-2,.06-3.05s0-2.11.08-3.16,0-1.93.07-2.9c.09-1.15.06-2.31.09-3.46,0-.59,0-1.19.08-1.78,0-.35,0-.69.08-1,0-.5.11-1,.13-1.51a1.14,1.14,0,0,1,.26-.68l.19-.23c-.13-.24-.38-.39-.37-.68.1.09.21.17.3.27l4.84,4.84c.1.1.2.18.3.27S57.78,23.94,57.94,24.06Z" transform="translate(-28.82 -6.54)" fill="#7f7f7f"/><path d="M52.11,18.24c0,.29.24.44.37.68l-.19.23a1.14,1.14,0,0,0-.26.68c0,.5-.09,1-.13,1.51,0,.34-.06.69-.08,1,0,.59-.06,1.19-.08,1.78,0,1.15,0,2.31-.09,3.46-.08,1,0,1.94-.07,2.9s0,2.11-.08,3.16,0,2-.06,3.05c0,1.2-.05,2.41-.08,3.61H51.2c0-.15,0-.3,0-.45q0-11,0-22c0-.12,0-.25,0-.37l0-.14Z" transform="translate(-28.82 -6.54)" fill="#787878"/><path d="M57.94,24.06c-.16-.12-.34-.23-.37-.45a.59.59,0,0,1,.45.45Z" transform="translate(-28.82 -6.54)" fill="#838383"/><path d="M51.19,17.48c0,.12,0,.25,0,.37q0,11,0,22c0,.15,0,.3,0,.45H42.64q0-11.06,0-22.11c0-.57,0-.59.57-.58.12,0,.29.06.33-.14h7.66Z" transform="translate(-28.82 -6.54)" fill="silver"/><path d="M32.86,29.14h4.7a1.29,1.29,0,0,0-.23.9q0,5.15,0,10.29H32.71q0-5.09,0-10.18A2.23,2.23,0,0,1,32.86,29.14Z" transform="translate(-28.82 -6.54)" fill="#c6c6c6"/></g></svg>