<svg id="ed7bd3ca-feb0-4d66-9fa5-9fd0d1db845c" data-name="Layer 1" xmlns="http://www.w3.org/2000/svg" viewBox="0 0 76.8 20.72"><title>bing_accredited_professional</title><path d="M7.45,33.83c0-.28,0-.56,0-.84q0-9.61,0-19.21c0-.18,0-.37,0-.58h76.8c0,.18,0,.37,0,.55q0,9.95,0,19.89c0,.07,0,.13,0,.2H7.45Zm76.38-.24c.05,0,.14,0,.15-.08a1.62,1.62,0,0,0,0-.32q0-4.24,0-8.49,0-5.38,0-10.77c0-.17,0-.33,0-.5H7.7V33.59h.38l.44,0H83.83Z" transform="translate(-7.43 -13.2)" fill="#b7b7b7"/><path d="M7.45,33.83H84.21a1.74,1.74,0,0,1-.36.08H7.92A2.91,2.91,0,0,1,7.45,33.83Z" transform="translate(-7.43 -13.2)" fill="#dadada"/><path d="M39.49,19v-.6l2.3.69v5.84l-2,1.78,0,.07L45.07,24a3.82,3.82,0,0,0-.57-.27,1.94,1.94,0,0,1-1.39-1.39c-.14-.41-.35-.8-.57-1.29,1.76.52,3.42,1,5.11,1.56v2.54L41.8,28.67,39.49,27V19.09l0,0Zm2.19.58s0-.05,0-.06,0,0-.06,0,0,.05,0,.06S41.65,19.61,41.67,19.6Z" transform="translate(-7.43 -13.2)" fill="#bfbfbf"/><path d="M65.42,22.25h.69c0,.11,0,.2,0,.29,0,1.29,0,2.59,0,3.88a3.48,3.48,0,0,1-.12.83,1.77,1.77,0,0,1-1.38,1.35,3.45,3.45,0,0,1-2.08-.14.86.86,0,0,1-.15-.11l.18-.58.39.15a2.33,2.33,0,0,0,1.49.06,1.18,1.18,0,0,0,.77-.66A2.38,2.38,0,0,0,65.38,26a1.19,1.19,0,0,0-.15.12,1.72,1.72,0,0,1-1.86.51,1.69,1.69,0,0,1-1.22-1.35,3.15,3.15,0,0,1,.17-2.07,1.87,1.87,0,0,1,2.06-1.1,1.61,1.61,0,0,1,1,.62Zm0,2.11a5.59,5.59,0,0,0-.1-.75,1.23,1.23,0,0,0-2-.56,2.26,2.26,0,0,0-.27,2.49,1.25,1.25,0,0,0,2.06,0A2.28,2.28,0,0,0,65.43,24.35Z" transform="translate(-7.43 -13.2)" fill="#bcbcbc"/><path d="M51.43,26.1v.49h-.71V20.17c.25,0,.44.11.71.15v2.53l.28-.23a1.72,1.72,0,0,1,2.91.75,2.93,2.93,0,0,1-.31,2.57,1.81,1.81,0,0,1-2.47.52C51.72,26.36,51.61,26.26,51.43,26.1ZM54,24.43c0-.3-.06-.53-.11-.74a1.17,1.17,0,0,0-1.13-1,1.28,1.28,0,0,0-1.26.92,2.83,2.83,0,0,0-.05,1.5,1.18,1.18,0,0,0,1,.93,1.12,1.12,0,0,0,1.31-.68A5,5,0,0,0,54,24.43Z" transform="translate(-7.43 -13.2)" fill="#bababa"/><path d="M58.25,26.61h-.72V22.25l.36,0h.34l.05.56.2-.18a1.62,1.62,0,0,1,1.65-.45,1.19,1.19,0,0,1,.86.76,2.12,2.12,0,0,1,.16.74c0,.92,0,1.84,0,2.76a1.7,1.7,0,0,1,0,.18h-.66c0-.1,0-.2,0-.3,0-.68,0-1.36,0-2a3.66,3.66,0,0,0-.06-.67.9.9,0,0,0-.59-.78,1.07,1.07,0,0,0-1.11.24,1.41,1.41,0,0,0-.43,1.08c0,.67,0,1.33,0,2C58.25,26.27,58.25,26.42,58.25,26.61Z" transform="translate(-7.43 -13.2)" fill="#bcbcbc"/><path d="M77,26.61h-.37v-.69a1.59,1.59,0,0,0-.19.17,1.8,1.8,0,0,1-3-.44,2.86,2.86,0,0,1,.23-2.75,1.84,1.84,0,0,1,2.23-.68,4.66,4.66,0,0,1,.74.5V20.11l.41,0Zm-.35-2.24h0c0-.17,0-.35,0-.52a1.41,1.41,0,0,0-1.07-1.33,1.48,1.48,0,0,0-1.57.61,2.7,2.7,0,0,0,0,2.59,1.47,1.47,0,0,0,2.59-.4A6.5,6.5,0,0,0,76.65,24.37Z" transform="translate(-7.43 -13.2)" fill="#bcbcbc"/><path d="M72.16,26.63l-.37,0,0-.72-.25.28a1.64,1.64,0,0,1-1.51.54,1.23,1.23,0,0,1-1-.91,1.27,1.27,0,0,1,.53-1.4,2.5,2.5,0,0,1,1-.34l1.25-.2a1.43,1.43,0,0,0-.13-.85,1,1,0,0,0-1-.53,2.25,2.25,0,0,0-1.2.54c-.15-.16-.08-.32-.06-.51A2.76,2.76,0,0,1,71,22.1a1.17,1.17,0,0,1,1,.79,2.15,2.15,0,0,1,.14.7c0,1,0,1.92,0,2.88A.82.82,0,0,1,72.16,26.63Zm-.45-2.34a6.3,6.3,0,0,0-1.9.36.81.81,0,0,0-.47.89.82.82,0,0,0,.58.74A1.34,1.34,0,0,0,71,26.16,1.69,1.69,0,0,0,71.71,24.29Z" transform="translate(-7.43 -13.2)" fill="#b9b9b9"/><path d="M36.45,30.34h-.21c-.08-.28-.11-13,0-13.61l.24,0Z" transform="translate(-7.43 -13.2)" fill="#b0b0b0"/><path d="M78.18,26.44V26a3.66,3.66,0,0,0,.66.28,2.79,2.79,0,0,0,.83,0A.74.74,0,0,0,80,25l-.59-.34c-.19-.1-.39-.18-.57-.29a1.13,1.13,0,0,1-.6-1.24,1.25,1.25,0,0,1,1-1,2,2,0,0,1,1.42.19v.44l-.39-.16a1.45,1.45,0,0,0-.94-.08.76.76,0,0,0-.61.62.7.7,0,0,0,.34.79c.22.13.45.24.67.35l.49.26a1,1,0,0,1,.57,1.1,1.06,1.06,0,0,1-.78,1A2,2,0,0,1,78.18,26.44Z" transform="translate(-7.43 -13.2)" fill="#b9b9b9"/><path d="M56.33,26.61h-.62a38.49,38.49,0,0,1,0-4.36h.62A39.38,39.38,0,0,1,56.33,26.61Z" transform="translate(-7.43 -13.2)" fill="#bebebe"/><path d="M32.35,20.8V19.63l.25,0v3.07c-.2.12-.25,0-.33-.14l-.11,0a.89.89,0,0,1-1.43-.77,1.69,1.69,0,0,1,.09-.63.89.89,0,0,1,1.26-.52Zm0,.83h0a1.74,1.74,0,0,0,0-.24.62.62,0,0,0-.44-.56.59.59,0,0,0-.7.23,1.44,1.44,0,0,0-.19.59.72.72,0,0,0,.64.86c.42,0,.69-.31.7-.8C32.35,21.68,32.35,21.66,32.35,21.63Z" transform="translate(-7.43 -13.2)" fill="#b8b8b8"/><path d="M25.83,22.77l-.36-.25a2.5,2.5,0,0,1-.32.18.83.83,0,0,1-1.09-.45,1.34,1.34,0,0,1,0-1,.92.92,0,0,1,1.26-.57l.28.1V19.62h.27Zm-.27-1.13c0-.08,0-.16,0-.24a.59.59,0,0,0-.5-.58.61.61,0,0,0-.67.31,1.11,1.11,0,0,0,0,1,.6.6,0,0,0,.77.31C25.45,22.35,25.58,22.12,25.56,21.63Z" transform="translate(-7.43 -13.2)" fill="#b5b5b5"/><path d="M15.32,19.79l1.09,2.89-.31,0-.33-.84H14.55l-.32.82h-.3c.16-.44.31-.85.46-1.26s.36-.94.54-1.42C15,19.83,15.05,19.71,15.32,19.79Zm-.13.42h-.07l-.47,1.34h1Z" transform="translate(-7.43 -13.2)" fill="#b8b8b8"/><path d="M12.24,27.36l-.29.06V24.47a8,8,0,0,1,1,0c.55.07.79.55.61,1.16,0,.06,0,.12-.06.19l.05,0a.71.71,0,0,0-.18.09,1.1,1.1,0,0,1-.8.3l-.37,0Zm0-1.38c.42,0,.8.07,1-.33a.65.65,0,0,0-.07-.74,1.05,1.05,0,0,0-1-.18Z" transform="translate(-7.43 -13.2)" fill="#b6b6b6"/><path d="M30.43,21.72H28.91c0,.69.42.92,1.08.65l0-.13c0,.26.19,0,.29.08s0,.2-.07.26c-.64.34-1.5.23-1.58-.77a1.66,1.66,0,0,1,.14-.77.87.87,0,0,1,1-.49.78.78,0,0,1,.67.7C30.38,21.38,30.39,21.51,30.43,21.72Zm-.34-.27c-.07-.47-.24-.66-.55-.66s-.55.23-.61.66Z" transform="translate(-7.43 -13.2)" fill="#b4b4b4"/><path d="M23.6,21.73H22.15c0,.71.5.94,1.29.59a.18.18,0,0,1-.07.29A1,1,0,0,1,21.83,22a1.38,1.38,0,0,1,.08-.82.93.93,0,0,1,1-.59.81.81,0,0,1,.71.8A3.21,3.21,0,0,1,23.6,21.73Zm-1.48-.28h1.16c0-.43-.14-.6-.45-.65S22.24,21,22.13,21.45Z" transform="translate(-7.43 -13.2)" fill="#b5b5b5"/><path d="M20.73,26.37a9.89,9.89,0,0,0-1.47.09c0,.7.4.85,1.33.55.08.14,0,.22-.11.28A1,1,0,0,1,19,26.52a1.69,1.69,0,0,1,.1-.7.93.93,0,0,1,1.07-.56.89.89,0,0,1,.61.8C20.74,26.15,20.73,26.24,20.73,26.37Zm-.28-.24c-.08-.49-.22-.64-.55-.64s-.55.19-.62.64Z" transform="translate(-7.43 -13.2)" fill="#b8b8b8"/><path d="M26.4,25.25a1,1,0,0,1,1,1,1,1,0,0,1-1,1.14,1,1,0,0,1-1.09-1A1,1,0,0,1,26.4,25.25Zm.74,1.08c0-.63-.38-1-.93-.81a.79.79,0,0,0-.52.85.77.77,0,0,0,.53.8l.16,0C26.87,27.21,27.15,26.89,27.14,26.33Z" transform="translate(-7.43 -13.2)" fill="#b6b6b6"/><path d="M17.42,26.26a1,1,0,0,1-.95,1.17.94.94,0,0,1-1-.56,1.32,1.32,0,0,1,.21-1.35,1.1,1.1,0,0,1,1.23-.17A1,1,0,0,1,17.42,26.26Zm-1.75.06a.84.84,0,0,0,.21.66.74.74,0,0,0,.85.15.92.92,0,0,0,.38-1,.67.67,0,0,0-.55-.6A.74.74,0,0,0,15.67,26.32Z" transform="translate(-7.43 -13.2)" fill="#b7b7b7"/><path d="M31.7,27.36l-.22,0-.06-.17a3.45,3.45,0,0,1-.71.2.54.54,0,0,1-.6-.46.61.61,0,0,1,.41-.73,2.87,2.87,0,0,1,.43-.09l.46-.08c0-.5-.25-.65-.68-.52-.14,0-.26.11-.4.16a.21.21,0,0,1,.15-.34,2.69,2.69,0,0,1,.78-.06c.26,0,.42.26.43.59C31.71,26.37,31.7,26.86,31.7,27.36Zm-.22-1.06c-.33.06-.57.09-.81.15a.36.36,0,0,0-.28.42.39.39,0,0,0,.39.32.57.57,0,0,0,.59-.38A4,4,0,0,0,31.48,26.3Z" transform="translate(-7.43 -13.2)" fill="#b7b7b7"/><path d="M28.23,27.37l-.26,0V25.33c.17-.13.24,0,.29.13a2.73,2.73,0,0,1,.58-.21.61.61,0,0,1,.77.61c0,.5,0,1,0,1.53h-.26c0-.3,0-.59,0-.88s0-.35,0-.52a.47.47,0,0,0-.36-.48.54.54,0,0,0-.6.23,1,1,0,0,0-.14.48C28.22,26.6,28.23,27,28.23,27.37Z" transform="translate(-7.43 -13.2)" fill="#b4b4b4"/><path d="M18.27,25.24l.57.1c-.14.31-.39.14-.59.27v1.78l-.31,0V25.59l-.32-.07,0-.19.35-.09a.9.9,0,0,0,0-.11,3,3,0,0,1,.06-.47.56.56,0,0,1,.65-.41c.13,0,.23.08.17.24C18.26,24.54,18.21,24.61,18.27,25.24Z" transform="translate(-7.43 -13.2)" fill="#b0b0b0"/><path d="M22.84,27.31V27a2.17,2.17,0,0,0,.29.08,1.24,1.24,0,0,0,.43,0c.1,0,.23-.13.24-.22a.43.43,0,0,0-.14-.34,2.46,2.46,0,0,0-.46-.24.57.57,0,0,1-.38-.63.58.58,0,0,1,.57-.48,1.85,1.85,0,0,1,.51,0c.13,0,.21.12.13.3l-.25-.05a1.53,1.53,0,0,0-.35,0,.31.31,0,0,0-.31.26.33.33,0,0,0,.21.35l.53.26a.5.5,0,0,1,.25.54.52.52,0,0,1-.39.45A1,1,0,0,1,22.84,27.31Z" transform="translate(-7.43 -13.2)" fill="#b5b5b5"/><path d="M21.15,27.4l0-.34c.38,0,.8.38,1-.17,0-.25-.21-.32-.37-.4a2.79,2.79,0,0,1-.42-.22.54.54,0,0,1,0-.88,1,1,0,0,1,.88-.09c.14,0,.17.16.08.29a3.2,3.2,0,0,0-.46-.09c-.24,0-.41.09-.44.26s.1.32.26.4l.4.18a.55.55,0,0,1-.16,1.06A5.78,5.78,0,0,1,21.15,27.4Z" transform="translate(-7.43 -13.2)" fill="#b7b7b7"/><path d="M20.11,20.66v.24l-.2,0a.71.71,0,0,0-.93.31.93.93,0,0,0,.24,1.24c.05,0,.14,0,.2,0l0-.06c-.06.15.07.15.13.14s.36-.06.55-.09c.09.17,0,.24-.15.29a1,1,0,0,1-1.38-.83A1.09,1.09,0,0,1,20.11,20.66Z" transform="translate(-7.43 -13.2)" fill="#b5b5b5"/><path d="M18.25,22.38l0,.23a1,1,0,0,1-1.28-.15A1.3,1.3,0,0,1,16.87,21a1.11,1.11,0,0,1,1.33-.35.9.9,0,0,1,0,.14.56.56,0,0,1,0,.13l-.27-.08a.73.73,0,0,0-.9.46.89.89,0,0,0,.29,1.1,1.34,1.34,0,0,0,.57.08,1.29,1.29,0,0,0,.34-.09Z" transform="translate(-7.43 -13.2)" fill="#b5b5b5"/><path d="M27.85,20.56l.48.05c0,.22,0,.22-.44.26a3.22,3.22,0,0,0,0,1.58l.39,0c.05.16,0,.21-.15.24a.48.48,0,0,1-.63-.48c0-.31,0-.61,0-.92,0-.15,0-.29,0-.44l-.39-.13c0-.27.26-.12.38-.26s-.12-.45.27-.51Z" transform="translate(-7.43 -13.2)" fill="#b6b6b6"/><path d="M20.6,20.52l.33.21.67-.23,0,.27s-.06.06-.08.06c-.46,0-.64.19-.69.64,0,.3,0,.61,0,.92a3.61,3.61,0,0,1-.07.42l-.21-.15Z" transform="translate(-7.43 -13.2)" fill="#afafaf"/><path d="M14.47,27.43l-.28-.07v-2c.21-.14.27,0,.31.18a.71.71,0,0,1,.71-.26l0,.21s-.06.06-.08.06c-.43,0-.65.15-.69.58s0,.56,0,.84S14.47,27.23,14.47,27.43Z" transform="translate(-7.43 -13.2)" fill="#afafaf"/><path d="M56,20.3a.44.44,0,0,1,.48.47.47.47,0,0,1-.49.47.47.47,0,0,1,0-.93Z" transform="translate(-7.43 -13.2)" fill="#b9b9b9"/><path d="M32.57,27.34c-.21,0-.23-.06-.23-.18s0-.45,0-.68c0-.62,0-1.25,0-1.87,0-.1,0-.2,0-.32h.2Z" transform="translate(-7.43 -13.2)" fill="#bdbdbd"/><path d="M24.86,27.37h-.2a2.54,2.54,0,0,1,0-.31c0-.51,0-1,0-1.52,0-.14,0-.28.2-.25A7.92,7.92,0,0,1,24.86,27.37Z" transform="translate(-7.43 -13.2)" fill="#bbb"/><path d="M26.52,20.64l.23,0v2.06l-.23,0Z" transform="translate(-7.43 -13.2)" fill="#bbb"/><path d="M39.49,19.26v0Z" transform="translate(-7.43 -13.2)" fill="#bfbfbf"/><path d="M39.49,22.31v0Z" transform="translate(-7.43 -13.2)" fill="#bfbfbf"/><path d="M39.49,25.11v0Z" transform="translate(-7.43 -13.2)" fill="#bfbfbf"/><path d="M39.49,25.91v0Z" transform="translate(-7.43 -13.2)" fill="#bfbfbf"/><polygon points="10.81 9.19 10.83 9.17 10.81 9.19 10.81 9.19" fill="#b5b5b5"/><path d="M39.49,19l0,.05,0,0A.08.08,0,0,1,39.49,19Z" transform="translate(-7.43 -13.2)" fill="#bfbfbf"/><path d="M41.67,19.6s0,0-.06,0,0,0,0-.06,0,0,.06,0S41.67,19.58,41.67,19.6Z" transform="translate(-7.43 -13.2)" fill="#bfbfbf"/></svg>