<svg id="56e2d950-e516-4995-9771-6ded44355a2f" data-name="Layer 1" xmlns="http://www.w3.org/2000/svg" viewBox="0 0 26.07 26.07"><title>display</title><g opacity="0.6"><path d="M51.75,16.48c0-.06,0-.12,0-.17q0-2.4,0-4.81a.9.9,0,0,1,.66-.94l.11,0h5.54l0,0a1.72,1.72,0,0,1,.27.1.93.93,0,0,1,.5.86q0,9.56,0,19.12c0,.2,0,.39,0,.59v0s0,.1,0,.15,0,.33-.07.5-.11.45-.18.67a6.09,6.09,0,0,1-.23.61,5.73,5.73,0,0,1-.69,1.15,6,6,0,0,1-1,1,5.78,5.78,0,0,1-1.26.78l-.44.19-.07,0-.24.07,0-.06h0l-1.8,0-.16,0h-.25a1.7,1.7,0,0,1-.28,0,3.35,3.35,0,0,0-.51,0h-.42l-.53,0H50.3l-.25,0,0,0c0-.07-.12-.06-.18-.08a.46.46,0,0,0-.24,0,.51.51,0,0,1-.27,0,1.74,1.74,0,0,0-.5-.06h-.21l-.07,0,.37-.21a5.49,5.49,0,0,0,.93-.69,5.94,5.94,0,0,0,1.92-4.29c0-.65,0-1.31,0-2q0-6,0-12c0-.08,0-.16,0-.23a0,0,0,0,0,0-.06Z" transform="translate(-32.8 -10.52)" fill="#636363"/><path d="M32.8,36.2c0-.19,0-.38,0-.57q0-3,0-6s0-.09,0-.13l0,0h3.42a1.17,1.17,0,0,0,.71-.23,1.29,1.29,0,0,0,.53-.78,1.45,1.45,0,0,0,0-.34q0-3.08,0-6.16a1,1,0,0,1,.13-.51.87.87,0,0,1,.64-.44,1.81,1.81,0,0,1,.3,0h5.06a.91.91,0,0,1,.68.28.88.88,0,0,1,.23.47,1.49,1.49,0,0,1,0,.24q0,3.67,0,7.34a.56.56,0,0,0,0,.1s0,0,0,0a.11.11,0,0,1,0,0l0,0a.51.51,0,0,0,0,.09c0,.33,0,.67,0,1,0,.1,0,.19,0,.29l0,.35v0l0,.06v0l0,.06v0l0,0v0l0,0-.08.3a6.31,6.31,0,0,1-.76,1.68,8,8,0,0,1-.53.72c-.09.1-.18.21-.28.31L42.3,35a5.71,5.71,0,0,1-.84.61l-.39.23-.43.19-.48.17c0-.06-.1,0-.16,0Z" transform="translate(-32.8 -10.52)" fill="#d5d5d5"/><path d="M51.75,16.57c0,.08,0,.16,0,.23q0,6,0,12c0,.65,0,1.31,0,2a6,6,0,0,1-.68,2.68,5.87,5.87,0,0,1-1.24,1.61,5.49,5.49,0,0,1-.93.69l-.37.21h0l0,0-.18.07s0,0,0,0L47.94,36h0a.82.82,0,0,1-.35,0,.48.48,0,0,0-.28,0,.35.35,0,0,1-.16,0s-.05,0,0-.08,0-.11-.1-.13-.09,0-.1-.11l0-.06a.31.31,0,0,1-.37.11l.09-.1.06,0,.23-.24,0,0,.23-.21.23-.25,0,0,.23-.21.23-.25,0,0,.23-.21.23-.25.1-.09.24-.26.13-.13a.08.08,0,0,0,0-.12c-.17-.19-.33-.38-.51-.57l-.89-.91-.83-.83-.08-.07,0-.05-.8-.8-.05,0-.08-.08-.4-.4L44.65,29s0-.07,0-.1q0-6.1,0-12.19a.94.94,0,0,1,.17-.58.88.88,0,0,1,.65-.37h5.48a.94.94,0,0,1,.77.64l0,.09v.09Z" transform="translate(-32.8 -10.52)" fill="#aaa"/><path d="M32.8,36.2H40c.06,0,.12,0,.16,0l-.08,0a6,6,0,0,1-.86.21,4.31,4.31,0,0,1-.68.08H32.8V36.2Z" transform="translate(-32.8 -10.52)" fill="#cbcbcb"/><path d="M44.65,29l.48.48.4.4.08.08s0,.1,0,.12l-.19.19-.26.24h0a3.16,3.16,0,0,1-.26.27l-.09.1a.34.34,0,0,1-.17.12l0-.1c0-.15,0-.29,0-.44s0-.34,0-.5,0-.25,0-.37a.4.4,0,0,0,0-.08.11.11,0,0,0,0,0,.83.83,0,0,0,0-.1C44.64,29.24,44.64,29.12,44.65,29Z" transform="translate(-32.8 -10.52)" fill="#979797"/><path d="M32.82,29.47l0,0Z" transform="translate(-32.8 -10.52)" fill="#dfdfdf"/><path d="M50.94,15.75h0Z" transform="translate(-32.8 -10.52)" fill="#c8c8c8"/><path d="M45.48,15.74h0Z" transform="translate(-32.8 -10.52)" fill="#c8c8c8"/><path d="M48.51,36h0l.07,0h.21a1.74,1.74,0,0,1,.5.06.51.51,0,0,0,.27,0,.46.46,0,0,1,.24,0c.06,0,.14,0,.18.08l0,0,.25,0h.32l.53,0h.42a3.35,3.35,0,0,1,.51,0,1.7,1.7,0,0,0,.28,0h.25l.16,0,1.8,0h0l0,.06-.37.1-.57.1h-.1a.11.11,0,0,0-.12,0H46.28l.47,0,.4-.08h.06l.76-.23a3.56,3.56,0,0,0,.34-.15l.18-.07Z" transform="translate(-32.8 -10.52)" fill="#595959"/><path d="M51.75,16.57V16.5A0,0,0,0,1,51.75,16.57Z" transform="translate(-32.8 -10.52)" fill="#858585"/><path d="M58.84,31.21v0Z" transform="translate(-32.8 -10.52)" fill="#adadad"/><path d="M53.38,36.57h.18v0h-.18Z" transform="translate(-32.8 -10.52)" fill="#c4c4c4"/><path d="M53.56,36.57h0a.11.11,0,0,1,.12,0Z" transform="translate(-32.8 -10.52)" fill="#8d8d8d"/><path d="M47.15,36.45l-.4.08-.47,0H38.53a4.31,4.31,0,0,0,.68-.08,6,6,0,0,0,.86-.21l.08,0,.48-.17.43-.19.26,0,0,.09.09,0a5,5,0,0,0,.55,0,4.33,4.33,0,0,1,.47,0l.29,0,.54,0,.66,0,.18,0,.22,0,.28,0c.13,0,.26,0,.39,0a3.39,3.39,0,0,1,.46,0c.19,0,.38,0,.57,0l.37,0a2.28,2.28,0,0,0,.55,0A.16.16,0,0,1,47.15,36.45Z" transform="translate(-32.8 -10.52)" fill="#989898"/><path d="M53.38,36.57h0Z" transform="translate(-32.8 -10.52)" fill="#828282"/><path d="M47.15,36.45a.16.16,0,0,0-.18-.06,2.28,2.28,0,0,1-.55,0l-.37,0c-.19,0-.38,0-.57,0a3.39,3.39,0,0,0-.46,0c-.13,0-.26,0-.39,0l-.28,0-.22,0-.18,0-.66,0-.54,0-.29,0a4.33,4.33,0,0,0-.47,0,5,5,0,0,1-.55,0l-.09,0,0-.09-.26,0,.39-.23A5.71,5.71,0,0,0,42.3,35l.45-.42c.1-.1.19-.2.28-.31v.1l.11-.09,3.24-3.24a.24.24,0,0,0,.09-.23l.08.07.83.83.89.91c.17.18.34.38.51.57a.08.08,0,0,1,0,.12l-.13.13-.24.26-.1.09-.23.25-.23.21,0,0-.23.25-.23.21,0,0-.23.25-.23.21,0,0-.23.24-.06,0-.09.1a.31.31,0,0,0,.37-.11l0,.06c0,.08,0,.1.1.11s.11,0,.1.13,0,.07,0,.08a.35.35,0,0,0,.16,0,.48.48,0,0,1,.28,0,.82.82,0,0,0,.35,0h0l.34.06s0,0,0,0a3.55,3.55,0,0,1-.34.15l-.76.23Z" transform="translate(-32.8 -10.52)" fill="#a0a0a0"/><path d="M46.5,30.85a.24.24,0,0,1-.09.23l-3.24,3.24-.11.09v-.1a8,8,0,0,0,.53-.72,6.31,6.31,0,0,0,.76-1.68l.08-.3s0,0,0,0v0s0,0,0,0v0s0,0,0-.06v0s0,0,0-.06v0l0,0s0-.09,0-.14l0-.18,0,.1a.34.34,0,0,0,.17-.12l.09-.1a3.16,3.16,0,0,0,.26-.27h0l.26-.24.19-.19s0-.08,0-.12l.05,0,.8.8Z" transform="translate(-32.8 -10.52)" fill="#9c9c9c"/><path d="M44.59,30.89l0,.18s0,.09,0,.14l0,0,0-.35c0-.1,0-.19,0-.29,0-.33,0-.67,0-1a.51.51,0,0,1,0-.09l0,0a.4.4,0,0,1,0,.08c0,.12,0,.25,0,.37s0,.34,0,.5S44.6,30.74,44.59,30.89Z" transform="translate(-32.8 -10.52)" fill="#acacac"/><path d="M44.46,31.38s0,.05,0,.06Z" transform="translate(-32.8 -10.52)" fill="#acacac"/><path d="M44.48,31.28s0,.05,0,.06Z" transform="translate(-32.8 -10.52)" fill="#acacac"/><path d="M44.44,31.48s0,0,0,0Z" transform="translate(-32.8 -10.52)" fill="#acacac"/><path d="M44.42,31.56s0,0,0,0Z" transform="translate(-32.8 -10.52)" fill="#acacac"/><path d="M48.51,36l0,0Z" transform="translate(-32.8 -10.52)" fill="#636363"/></g></svg>