<svg id="_3dce9d85-b6b9-4144-b4d9-6ce377565e19" data-name=" 3dce9d85-b6b9-4144-b4d9-6ce377565e19" xmlns="http://www.w3.org/2000/svg" viewBox="0 0 304.92 304.92"><title>footer-logo</title><path d="M83.21,131.18A20.88,20.88,0,0,0,62,151.72v32.65A20.83,20.83,0,0,0,82.42,205.6h.79a21,21,0,0,0,21.22-20.78h0V152.48a21,21,0,0,0-20.7-21.3h-.52" transform="translate(0 0)" fill="#92278f"/><path d="M221.68,131.18a20.88,20.88,0,0,0-21.21,20.54q0,.37,0,.74v31.85a21.22,21.22,0,0,0,42.44,0V152.46a21,21,0,0,0-20.72-21.28h-.5" transform="translate(0 0)" fill="#92278f"/><path d="M152.46,0A152.46,152.46,0,1,0,304.92,152.46h0A152.46,152.46,0,0,0,152.46,0h0M125.73,205.6a10.16,10.16,0,0,1-3.11,7.49,10.29,10.29,0,0,1-7.53,3.09,9.84,9.84,0,0,1-9.71-6.28,41.23,41.23,0,0,1-22.17,6.28q-18,0-30.27-12.22T40.73,173.68V163q0-18,12.26-30.21T83.21,120.6q17.93,0,30.21,12.27t12.28,30.2Zm36.16-.06a10.64,10.64,0,0,1-21.28,0h0V131.18a10.18,10.18,0,0,1,3.08-7.53,10.85,10.85,0,0,1,15.12,0,10.19,10.19,0,0,1,3.08,7.5Zm-3.11-98.64a10.72,10.72,0,1,1,3.11-7.55,10.26,10.26,0,0,1-3.11,7.55m93.15,97q-12.27,12.26-30.25,12.26T191.41,204q-12.2-12.27-12.2-30.32V163q0-18,12.26-30.21t30.24-12.23a41.32,41.32,0,0,1,21.22,5.73v-27A10.19,10.19,0,0,1,246,91.76a10.86,10.86,0,0,1,15.12,0,10.2,10.2,0,0,1,3.07,7.5v74.36q0,18-12.25,30.24" transform="translate(0 0)" fill="#92278f"/></svg>