<svg id="Layer_1" data-name="Layer 1" xmlns="http://www.w3.org/2000/svg" viewBox="0 0 36.92 36.92"><title>logo</title><path d="M11.87,16.88A2.53,2.53,0,0,0,9.3,19.46v3.86a2.52,2.52,0,0,0,2.57,2.57,2.54,2.54,0,0,0,2.57-2.57V19.46a2.54,2.54,0,0,0-2.57-2.58" transform="translate(-1.79 -1)" fill="#92278f"/><path d="M28.63,16.88a2.53,2.53,0,0,0-2.57,2.58v3.86a2.57,2.57,0,1,0,5.14,0V19.46a2.54,2.54,0,0,0-2.57-2.58" transform="translate(-1.79 -1)" fill="#92278f"/><path d="M20.25,1A18.46,18.46,0,1,0,38.71,19.46,18.46,18.46,0,0,0,20.25,1M17,25.89a1.23,1.23,0,0,1-.38.91,1.25,1.25,0,0,1-.91.37,1.19,1.19,0,0,1-1.18-.76,5,5,0,0,1-2.68.76A5.06,5.06,0,0,1,6.72,22V20.74a5.06,5.06,0,0,1,5.15-5.14A5.08,5.08,0,0,1,17,20.74Zm4.38,0a1.29,1.29,0,1,1-2.58,0v-9a1.23,1.23,0,0,1,.37-.91A1.31,1.31,0,0,1,21,16a1.23,1.23,0,0,1,.37.91ZM21,13.94a1.3,1.3,0,1,1,.38-.91,1.24,1.24,0,0,1-.38.91M32.29,25.69A5.14,5.14,0,0,1,23.48,22V20.74A5.14,5.14,0,0,1,31.2,16.3V13a1.23,1.23,0,0,1,.37-.91,1.32,1.32,0,0,1,1.83,0,1.24,1.24,0,0,1,.37.91v9a5,5,0,0,1-1.48,3.66" transform="translate(-1.79 -1)" fill="#92278f"/></svg>