<svg id="fae5e15c-bcef-4521-a363-0c491c4434b0" data-name="Layer 1" xmlns="http://www.w3.org/2000/svg" viewBox="0 0 75.66 9.04"><title>manifest-award-awwwards</title><path d="M8,27.68c.19-.44.41-.87.58-1.32.32-.88.6-1.78.91-2.67.46-1.33.94-2.66,1.41-4,.06-.16.14-.31.21-.48h1.65l3.06,8.68H14.22l-.75-2.16H10.39l-.77,2.2H8Zm5-3.35c-.21-.62-.39-1.16-.56-1.71s-.34-1.13-.51-1.7h-.1L10.8,24.33Z" transform="translate(-8.01 -19.03)" fill="#b2b2b2"/><path d="M24.78,25.71l1.55-6.49h1.61c-.72,2.89-1.47,5.76-2.23,8.65a8.59,8.59,0,0,1-1.84,0l-1.58-6.13L20.71,27.9H18.86c-.69-2.89-1.47-5.75-2.14-8.69h1.59c.54,2.2,1,4.41,1.56,6.7l1.73-6.67a4.65,4.65,0,0,1,1.39,0l1.68,6.51Z" transform="translate(-8.01 -19.03)" fill="#b2b2b2"/><path d="M39.71,25.71l1.69-6.5h1.38l1.67,6.49a9.33,9.33,0,0,0,.62-2.09c.21-.71.34-1.45.52-2.18s.36-1.45.55-2.21h1.54a3.56,3.56,0,0,1-.06.54q-.93,3.6-1.88,7.2c-.08.31-.17.61-.26.94H43.68c-.55-2-1.07-4-1.58-6.15L40.5,27.9H38.69c-.08-.24-.18-.52-.25-.8-.2-.77-.36-1.54-.58-2.3a2.79,2.79,0,0,1,0-1.57c.21-.76.39-1.53.65-2.3l1.1,4.81Z" transform="translate(-8.01 -19.03)" fill="#b2b2b2"/><path d="M28.55,20.88c.48,1.65.73,3.32,1.22,5l1.73-6.69h1.36c.64,2.14,1.12,4.34,1.82,6.51l1.55-6.52h1.57a4.85,4.85,0,0,1-.08.59q-1,4-2.07,8a.72.72,0,0,1-.09.14H33.8c-.38-1-.52-2-.82-3.05s-.52-2-.78-3.09l-1.58,6.13a13.08,13.08,0,0,1-1.82,0c-.09-.31-.2-.61-.28-.91-.2-.79-.41-1.57-.57-2.37a2.76,2.76,0,0,1-.06-1.07C28.06,22.68,28.31,21.8,28.55,20.88Z" transform="translate(-8.01 -19.03)" fill="#b2b2b2"/><path d="M68.33,27.85V19.23c.15,0,.3,0,.44,0,.86,0,1.72,0,2.58,0a5.39,5.39,0,0,1,2.07.4A3.89,3.89,0,0,1,75.74,23a5,5,0,0,1-.6,3,3.4,3.4,0,0,1-1.2,1.23,4.44,4.44,0,0,1-2.25.67c-1.07,0-2.15,0-3.22,0C68.43,27.92,68.4,27.89,68.33,27.85Zm1.59-7.24c0,2,0,3.95,0,5.92A7.89,7.89,0,0,0,72,26.46,2.36,2.36,0,0,0,74,24.63a4.09,4.09,0,0,0,.08-1.85,2.42,2.42,0,0,0-1.59-2A5.35,5.35,0,0,0,69.92,20.61Z" transform="translate(-8.01 -19.03)" fill="#b2b2b2"/><path d="M65.53,27.9H63.81l-1.35-2.52-.24-.45a.42.42,0,0,0-.42-.24H60.57a13.31,13.31,0,0,0,0,1.61c0,.51,0,1,0,1.56a6.93,6.93,0,0,1-1.56.06V19.24a4,4,0,0,1,.46-.05c.94,0,1.89,0,2.83,0a3,3,0,0,1,1.37.28,2.63,2.63,0,0,1,1.22,3,2.39,2.39,0,0,1-.92,1.42l-.4.3C64.2,25.46,64.9,26.62,65.53,27.9Zm-5-4.6c.52,0,1,0,1.45,0a1.4,1.4,0,0,0,1.21-2,.89.89,0,0,0-.58-.55,4.43,4.43,0,0,0-2.09,0Z" transform="translate(-8.01 -19.03)" fill="#b2b2b2"/><path d="M51.83,19.2H53.5l3,8.66a9,9,0,0,1-1.6.08l-.73-2.2H51.11l-.75,2.16H48.8c.45-1.51,1-2.93,1.52-4.37Zm1.94,5.13-1.11-3.55-1.12,3.55Z" transform="translate(-8.01 -19.03)" fill="#b2b2b2"/><path d="M82.82,21.25a3.52,3.52,0,0,0-1.71-.73,1.39,1.39,0,0,0-1.33.47.74.74,0,0,0,.11,1.17,8.18,8.18,0,0,0,1,.62c.51.27,1.05.48,1.55.77A2.19,2.19,0,0,1,83.62,26a2.34,2.34,0,0,1-1.69,1.91,4.29,4.29,0,0,1-4.09-.94c.12-.48.52-.79.82-1.24a3.53,3.53,0,0,0,1.91.89,1.35,1.35,0,0,0,1.24-.36.81.81,0,0,0,0-1.28,4.48,4.48,0,0,0-.79-.53c-.53-.28-1.08-.51-1.61-.8a2.4,2.4,0,0,1-1.26-1.3,2.36,2.36,0,0,1,1.36-3,3.87,3.87,0,0,1,4,.6Z" transform="translate(-8.01 -19.03)" fill="#b2b2b2"/></svg>