<svg id="2765d9c7-68f2-4dd8-98ff-a9670e622ed1" data-name="Layer 1" xmlns="http://www.w3.org/2000/svg" viewBox="0 0 116.66 170.6"><title>Rock</title><path d="M207.87,102.37l-.36-78.28A8.53,8.53,0,0,0,205.37,18c-1.94-2.15-5-3.24-8.95-3.24-3.84,0-6.82,1.08-8.85,3.21a9.66,9.66,0,0,0-2.6,6.66V44.28a11.13,11.13,0,0,0-6.82-2c-4.9,0-7.68,1.59-9.26,3.33-1.58-1.73-4.36-3.33-9.26-3.33a11.14,11.14,0,0,0-6.82,2V24.72a9.7,9.7,0,0,0-2.6-6.76c-2-2.13-5-3.21-8.85-3.21-4,0-7,1.09-8.95,3.24a8.53,8.53,0,0,0-2.14,6.09l-.34,57c-4.16-4.2-11.24-11.29-13.89-13.6a10.69,10.69,0,0,0-12-1.24,11,11,0,0,0-5.93,11c1,9.39,24.6,35.24,31.93,41.35,1.86,1.55,3.88,3,5.66,4.33,1.34,1,3,2.16,3.58,2.75v13.57a3.23,3.23,0,0,0,3.23,3.23h53a3.23,3.23,0,0,0,3.23-3.23v-13.1c0-1.6,1.29-4,2.17-5.25l.14-.22a106.63,106.63,0,0,0,5.6-11A16.9,16.9,0,0,0,207.87,102.37ZM171,50.32c.09-.6.88-3.89,7.19-3.89,6.54,0,6.81,5.68,6.82,6.34v2.91h-7.31a2.07,2.07,0,1,0,0,4.14H185V82.72a6.45,6.45,0,0,1-6.58,5.75A7.52,7.52,0,0,1,171,83.18Zm-18.16,2.45c0-6.26,6.54-6.34,6.82-6.34,6.36,0,7.11,3.34,7.19,3.89v5.37h-6.7a2.07,2.07,0,1,0,0,4.14h6.7V83.18a7.52,7.52,0,0,1-7.43,5.29,6.46,6.46,0,0,1-6.58-5.74v-30Zm-9.38,76.16h37.41v9.5H143.41Zm41.55,9.5v-9.5h9.62v9.5Zm17.81-30.11a104,104,0,0,1-5.3,10.36,17.37,17.37,0,0,0-2.74,6.11H143.34a3.22,3.22,0,0,0-.6-1.34c-.68-.87-2-1.89-4.61-3.77-1.73-1.26-3.7-2.7-5.45-4.16-7.9-6.59-29.71-31.2-30.46-38.59A6.8,6.8,0,0,1,105.93,70a6.57,6.57,0,0,1,7.38.69c2.92,2.53,11.61,11.3,15.22,15A3.23,3.23,0,0,0,134,83.38L134.39,24V23.8a4.46,4.46,0,0,1,1.08-3c1.13-1.25,3.1-1.88,5.87-1.88s4.6.64,5.82,1.89a5.72,5.72,0,0,1,1.49,3.83V82.79a3.13,3.13,0,0,0,0,.45c.5,3.48,3.32,9.38,10.69,9.38a11.55,11.55,0,0,0,9.5-4.58,11.54,11.54,0,0,0,9.51,4.58c7.38,0,10.19-5.9,10.69-9.38a3.08,3.08,0,0,0,0-.45v-30h0s0,0,0-.06V24.53a5.73,5.73,0,0,1,1.46-3.7c1.22-1.28,3.19-1.93,5.85-1.93s4.71.62,5.84,1.84a4.41,4.41,0,0,1,1.12,3.07v.11l.37,78.58,0,.24A13,13,0,0,1,202.77,108.32Z" transform="translate(-98.03 -14.75)" fill="#fff"/><path d="M127.49,178.13a6.87,6.87,0,0,1-7.24,7.22,7.65,7.65,0,1,1-.23-15.29,7.52,7.52,0,0,1,6.42,3.36l-2.86,1.64a4.42,4.42,0,0,0-7.92,2.69c0,2.5,1.76,4.33,4.62,4.33a3.65,3.65,0,0,0,3.76-2.27h-3.93v-2.94h7.37Z" transform="translate(-98.03 -14.75)" fill="#fff"/><path d="M133.56,182.54a2.74,2.74,0,0,0,2-.8l2.52,1.45a5.33,5.33,0,0,1-4.58,2.16c-3.59,0-5.82-2.42-5.82-5.54a5.38,5.38,0,0,1,5.58-5.54,5.3,5.3,0,0,1,5.33,5.54,6.11,6.11,0,0,1-.13,1.26H131A2.39,2.39,0,0,0,133.56,182.54Zm1.93-3.82a2.37,2.37,0,0,0-4.51,0Z" transform="translate(-98.03 -14.75)" fill="#fff"/><path d="M143,177.58v3.72c0,.9.78,1,2.16.9v2.86c-4.12.42-5.31-.82-5.31-3.76v-3.72h-1.68v-3h1.68v-2l3.15-.95v2.94h2.16v3Z" transform="translate(-98.03 -14.75)" fill="#fff"/><path d="M150,171.74a1.89,1.89,0,1,1,1.89,1.89A1.91,1.91,0,0,1,150,171.74Zm.32,2.81h3.15v10.5h-3.15Z" transform="translate(-98.03 -14.75)" fill="#fff"/><path d="M158.74,177.58v3.72c0,.9.78,1,2.16.9v2.86c-4.12.42-5.31-.82-5.31-3.76v-3.72h-1.68v-3h1.68v-2l3.15-.95v2.94h2.16v3Z" transform="translate(-98.03 -14.75)" fill="#fff"/><path d="M176.82,170.36v14.7h-3.15v-1a4,4,0,0,1-3.13,1.28,5.57,5.57,0,0,1,0-11.09,4,4,0,0,1,3.13,1.28v-5.19Zm-3.15,9.45a2.5,2.5,0,1,0-2.5,2.56A2.4,2.4,0,0,0,173.67,179.81Z" transform="translate(-98.03 -14.75)" fill="#fff"/><path d="M177.56,179.81a5.56,5.56,0,1,1,5.56,5.54A5.5,5.5,0,0,1,177.56,179.81Zm8,0a2.42,2.42,0,1,0-2.41,2.48A2.35,2.35,0,0,0,185.54,179.81Z" transform="translate(-98.03 -14.75)" fill="#fff"/><path d="M199.5,178.61v6.45h-3.15v-6a1.73,1.73,0,0,0-1.83-1.91c-1.15,0-2,.67-2,2.16v5.73h-3.15v-10.5h3.15v1a3.59,3.59,0,0,1,3-1.28C197.7,174.26,199.5,175.77,199.5,178.61Z" transform="translate(-98.03 -14.75)" fill="#fff"/><path d="M205.95,182.54a2.74,2.74,0,0,0,2-.8l2.52,1.45a5.33,5.33,0,0,1-4.58,2.16c-3.59,0-5.82-2.42-5.82-5.54a5.38,5.38,0,0,1,5.58-5.54,5.3,5.3,0,0,1,5.33,5.54,6.11,6.11,0,0,1-.13,1.26h-7.45A2.39,2.39,0,0,0,205.95,182.54Zm1.93-3.82a2.36,2.36,0,0,0-4.51,0Z" transform="translate(-98.03 -14.75)" fill="#fff"/><path d="M210.7,183.35a2,2,0,1,1,2,2A2,2,0,0,1,210.7,183.35Z" transform="translate(-98.03 -14.75)" fill="#fff"/></svg>