<svg id="ccf22c90-af4d-402e-b478-416b29ab39a5" data-name="Layer 1" xmlns="http://www.w3.org/2000/svg" viewBox="0 0 81.34 11.74"><title>manifest-award-one-page-love</title><path d="M18,21.95l.35.07a3.79,3.79,0,0,1-.23,1,8.84,8.84,0,0,1-1.23,1.92c-1.1,1.14-2.29,2.2-3.46,3.27-.46.42-1,.78-1.55,1.22-1-.88-2.12-1.76-3.17-2.67-.45-.39-.86-.84-1.29-1.25a8.76,8.76,0,0,1-2.07-3.3A1.06,1.06,0,0,0,5.17,22V20.81c.17-.3.36-.58.5-.89a3.91,3.91,0,0,1,2.81-2.18,2.84,2.84,0,0,1,2.45.87,11,11,0,0,1,1,1.08c.11-.13.22-.27.35-.39.44-.41.88-.81,1.34-1.19.05,0,.21,0,.32.06v1.7a13.08,13.08,0,0,0,.74,1.27,3.82,3.82,0,0,0,1.88,1.13C17.08,22.42,17.53,22.11,18,21.95Z" transform="translate(-5.17 -17.69)" fill="#b2b2b2"/><path d="M69.54,25.06c0-.6,0-1.21,0-1.81a3.18,3.18,0,0,1,5-2.63,3.27,3.27,0,0,0,.29.15l.14-.45h2.84l.05.76-.65.3,1.18,3.56h.18l1.16-3.55-.52-.19v-.89h7.3v1.75H85.23L85,21.48H83.64V23l2.33.08v1.12H83.62V26h1.51l.15-.73H86.5v1.92H81.45l0-.83.63-.26V21.34l-.82-.06-2,5.9H77.56l-1.71-4.75a2.82,2.82,0,0,0-.2.57c0,.44,0,.88,0,1.32a2.7,2.7,0,0,1-3,2.94,5,5,0,0,1-1.37-.15,2.58,2.58,0,0,1-1.61-1.64,1,1,0,0,0-.13-.18Zm3.21,1.11A1.57,1.57,0,0,0,74,24.83,4.23,4.23,0,0,0,74,22.42a1.45,1.45,0,0,0-1.36-1.11,1.52,1.52,0,0,0-1.34,1.05,3.87,3.87,0,0,0-.17,2.17A1.7,1.7,0,0,0,72.75,26.17Z" transform="translate(-5.17 -17.69)" fill="#b2b2b2"/><path d="M34.78,26.07V21.33l-.87,0c-.17,2,0,3.93-.1,5.89H32.39l-2.67-4.27v3.22l.59.14v.9H27.6l0-.83.62-.28V21.39l-.56-.19v-.87h2.18l2.53,4.08v-3l-.58-.18v-.89h7.46v1.76H38l-.2-.58H36.36V23h2.33v1.19H36.37v1.7a2.41,2.41,0,0,0,1.52,0l.12-.68h1.24V27.2c-.82,0-1.66,0-2.5,0H34.19l0-.88Z" transform="translate(-5.17 -17.69)" fill="#b2b2b2"/><path d="M49.53,20.25l2,5.76.66.31v.85h-2.9l-.05-.82.56-.23-.09-.67H47.56l-.12.52.51.41-.05.81c-.89,0-1.75,0-2.66,0l0-.84.61-.25,1.62-4.66-.54-.32v-.87Zm-.14,4-.66-2.08h-.16l-.67,2.09Z" transform="translate(-5.17 -17.69)" fill="#b2b2b2"/><path d="M61.59,22.07l-.13-.58H60.07V23H62.4v1.26H60.07V25.9l.7.05h.79l.19-.79,1.28.09v1.91H57.9l0-.83.63-.27V21.39L58,21.2v-1c1.66,0,3.29,0,4.95.05v1.83Z" transform="translate(-5.17 -17.69)" fill="#b2b2b2"/><path d="M57.37,20.54v1.87H56.11L56,21.48a1.73,1.73,0,0,0-2.48,1.21,5,5,0,0,0,0,2c.32,1.3,1.11,1.71,2.43,1.19V24.61l-.74-.11v-1H58l.07.77-.5.35v1.9a4,4,0,0,1-4.26.37,2.82,2.82,0,0,1-1-1.12A4.63,4.63,0,0,1,52.17,22a2.72,2.72,0,0,1,1.89-1.68A4.79,4.79,0,0,1,57.37,20.54Z" transform="translate(-5.17 -17.69)" fill="#b2b2b2"/><path d="M27.62,23.7a4,4,0,0,1-.48,2.3,2.47,2.47,0,0,1-2.08,1.27c-.27,0-.55,0-.82,0a2.53,2.53,0,0,1-2.65-2,5.17,5.17,0,0,1,.22-3.54,2.77,2.77,0,0,1,2.42-1.58,4.41,4.41,0,0,1,1.31.06,2.73,2.73,0,0,1,2,2.33C27.6,22.93,27.6,23.31,27.62,23.7Zm-3,2.48a1.55,1.55,0,0,0,1.28-1.29,4.2,4.2,0,0,0,0-2.41,1.51,1.51,0,0,0-1.32-1.17,1.6,1.6,0,0,0-1.44,1.15A4.12,4.12,0,0,0,23,24.56,1.68,1.68,0,0,0,24.66,26.18Z" transform="translate(-5.17 -17.69)" fill="#b2b2b2"/><path d="M41.49,21.36,41,21.21v-.88c1.36,0,2.7-.09,4,0a1.77,1.77,0,0,1,1.59,1.87,2.12,2.12,0,0,1-.92,2.13,4.66,4.66,0,0,1-1.39.42,6.5,6.5,0,0,1-1.12,0v1.34l.89.17v.87H40.94l0-.83.59-.22Zm3.38.38c-1-.46-1-.46-1.76-.29v2.29c.76,0,1.48,0,1.93-.91Z" transform="translate(-5.17 -17.69)" fill="#b2b2b2"/><path d="M69.54,25.06l0,.23v1.86H64.5l-.07-.81.61-.27V21.37l-.54-.16v-.89H67.2l.07.74-.63.34v4.5A2.42,2.42,0,0,0,68.2,26l.1-1Z" transform="translate(-5.17 -17.69)" fill="#b2b2b2"/><path d="M18,21.95c-.48.16-.94.47-1.49.33a1.19,1.19,0,0,0-.45-1l-1.69-1.51-.1.08-.13-.62-.26,0v-1c.31.24.65.45.94.72a11.24,11.24,0,0,0,1.8,1.67A11,11,0,0,1,18,21.72S18,21.87,18,21.95Z" transform="translate(-5.17 -17.69)" fill="#b2b2b2"/><path d="M13.9,19.17l.26,0,.13.62.1-.08,1.69,1.51a1.19,1.19,0,0,1,.45,1,3.82,3.82,0,0,1-1.88-1.13,13.08,13.08,0,0,1-.74-1.27Z" transform="translate(-5.17 -17.69)" fill="#b2b2b2"/></svg>