<svg id="a6336319-0812-42d1-af84-a8458bde200d" data-name="Layer 1" xmlns="http://www.w3.org/2000/svg" viewBox="0 0 68.6 20.39"><title>manifest-award-fwa</title><path d="M26.49,28.07c-.59,4-1.95,5.62-4.64,5.66s-4.2-1.61-4.83-5.66a4.48,4.48,0,0,1-4.5-1.78,5.87,5.87,0,0,1-1-2.91c-.05-2.58,1.9-4.12,5.6-4.57,0-.43,0-.89.09-1.34a4.4,4.4,0,0,1,4.4-4.07c3.83,0,7.67,0,11.5,0a4.34,4.34,0,0,1,4.06,2.47c.5.9.94,1.84,1.56,3.05.56-1.09,1-1.91,1.41-2.74a4.64,4.64,0,0,1,8.48,0c.42.85.88,1.68,1.44,2.76.52-1,.95-1.87,1.36-2.7A4.62,4.62,0,0,1,56,13.36c4.45.07,8.91,0,13.37,0,3.22,0,4.82,1.52,5,4.76,0,.19,0,.37.08.64.62.09,1.22.16,1.82.27a4.53,4.53,0,0,1-.48,9l-1.34.11c0,.54-.08,1-.12,1.47a4.38,4.38,0,0,1-4.15,4.05c-4,.09-8,.07-12.07,0a4.58,4.58,0,0,1-3.85-2.59c-.27.35-.45.61-.66.86a4.55,4.55,0,0,1-7.61-.61c-.56-1-1-2-1.66-3.2L43,30.92a4.63,4.63,0,0,1-8.5,0c-.55-1.11-1.11-2.22-1.64-3.28-1.15.14-2.21.33-3.28.39S27.5,28.07,26.49,28.07Zm-3.22-8.62h8.9c.25.45.51.91.74,1.37q2.16,4.3,4.3,8.61c.31.63.69,1.17,1.48,1.19s1.26-.53,1.6-1.22c1.17-2.36,2.35-4.71,3.54-7.06.16-.31.35-.6.62-1.05l2.14,4.27c.69,1.37,1.33,2.76,2.07,4.1s2,1.33,2.79,0c.2-.33.35-.68.53-1l4.6-9.19H68.27V22H66.6c-2.49,0-5,0-7.48,0-1.57,0-2,.5-2.05,2.09s0,3.16,0,4.74c0,1.29.47,1.79,1.72,1.8q5.39,0,10.78,0c1.27,0,1.7-.49,1.72-1.78s0-2.47,0-3.87H73c.86,0,1.73,0,2.59,0A1.41,1.41,0,0,0,77,23.6a1.46,1.46,0,0,0-1.25-1.53A6.77,6.77,0,0,0,74.44,22H71.3c0-1.33,0-2.52,0-3.7,0-1.48-.39-1.87-1.89-1.87-4.41,0-8.82,0-13.23,0a2,2,0,0,0-2,1.25c-1.09,2.29-2.25,4.55-3.39,6.81-.2.39-.43.76-.74,1.29-1.4-2.8-2.72-5.4-4-8-.33-.66-.66-1.29-1.53-1.32s-1.32.62-1.68,1.33q-1.73,3.47-3.47,6.94c-.16.31-.37.59-.63,1-1.4-2.78-2.72-5.38-4-8a2,2,0,0,0-2-1.3c-3.5,0-7,0-10.49,0-1.46,0-1.85.42-1.87,1.91,0,1.18,0,2.36,0,3.47a2.16,2.16,0,0,1-.45.16l-3,0c-1.44,0-2.2.54-2.21,1.5S15.38,25,16.84,25h3.48c0,1.41,0,2.6,0,3.8s.58,1.87,1.51,1.84,1.37-.64,1.39-1.81,0-2.46,0-3.83H25.1c1.72,0,3.45,0,5.17,0a1.44,1.44,0,0,0,.41-2.83A4,4,0,0,0,29.55,22H24.38a10.62,10.62,0,0,1-1.11-.12Z" transform="translate(-11.53 -13.36)" fill="#b2b2b2"/><path d="M60.13,25.07h8.14v2.52H60.13Z" transform="translate(-11.53 -13.36)" fill="#b2b2b2"/></svg>