<svg id="90de2ab8-402a-4a3c-8433-8363798910a1" data-name="Layer 1" xmlns="http://www.w3.org/2000/svg" viewBox="0 0 184.66 170.73"><title>Astronaut</title><path d="M137,39.54a18.13,18.13,0,0,1,.55,2.15,1.95,1.95,0,1,0,3.83-.73,22.11,22.11,0,0,0-.67-2.62,1.95,1.95,0,0,0-3.71,1.2Z" transform="translate(-71.17 -14.64)" fill="#fff"/><path d="M119,26.44a19.16,19.16,0,0,1,14.75,7.21,1.95,1.95,0,1,0,3-2.44A23.09,23.09,0,0,0,119,22.54h0a1.95,1.95,0,0,0,0,3.9Z" transform="translate(-71.17 -14.64)" fill="#fff"/><path d="M125.55,90.26h-8.76a1.95,1.95,0,0,0,0,3.9h8.76a1.95,1.95,0,1,0,0-3.9Z" transform="translate(-71.17 -14.64)" fill="#fff"/><path d="M255.26,104.72l-6-6a11,11,0,0,0-14.08-1.26l-3.91-3.91,1,.13A1.95,1.95,0,0,0,234.23,92l4.85-35.55a2,2,0,0,0-1.67-2.2L229,53.14a11,11,0,0,0-12,7.52l-18.92-2.58a21.61,21.61,0,0,0-4-.17V49.29a15.34,15.34,0,1,0-30.69,0V59.7h-7.54L148.17,52a30.14,30.14,0,1,0-59.1-11.53L75.18,54.32a13.71,13.71,0,0,0,0,19.38l31.49,31.49v3.26a21.47,21.47,0,0,0,21.44,21.44h3.06l1.54,1.54a38.61,38.61,0,0,0,54.54,0l19.28-19.21,20.6,20.62a1.95,1.95,0,0,0,2.76,0l25.37-25.37A2,2,0,0,0,255.26,104.72ZM231.87,57.46l3.08.42-4.32,31.68-3.08-.42Zm-18.39,6.65,4.81.66a2,2,0,0,0,2.19-1.67A7.13,7.13,0,0,1,228,57l-4,29.33L221.69,84a21.3,21.3,0,0,0-10.15-5.69ZM198.65,66.6a14.58,14.58,0,0,0,.18-4.48l10.78,1.47-1.93,14.15c-.38,0-.77,0-1.15,0a21.38,21.38,0,0,0-8.68,1.83l-3.74-4.91A14.51,14.51,0,0,0,198.65,66.6Zm-4.24,14.86a21.67,21.67,0,0,0-3,2.53l-5.59,5.59-8.49-8.49.56-4.13V76.9a14.61,14.61,0,0,0,3.62,1.22,14.77,14.77,0,0,0,2.85.28,14.46,14.46,0,0,0,6.55-1.58Zm.43-19.67a10.73,10.73,0,0,1-16,11.23,17.55,17.55,0,0,1,16-11.23ZM170.7,41.2a11.46,11.46,0,0,1,18.69,3.74H168.2A11.42,11.42,0,0,1,170.7,41.2Zm-3.34,7.64h22.87c0,.15,0,9.64,0,9.64a21.52,21.52,0,0,0-13.94,10.8l-8.95-8.95S167.35,49,167.36,48.83ZM165.11,63.6h0s9.5,9.48,9.59,9.54a21.68,21.68,0,0,0-.71,3.29l-.16,1.19-14-14ZM183,92.33l-6,6L142.36,63.68a30.16,30.16,0,0,0,4.46-7.55ZM118.25,18.55l.65,0A26.26,26.26,0,0,1,145,47.47c-6.4,6.21-15,8.84-22.48,6.91a10,10,0,0,0-10-9.4,10.11,10.11,0,0,0-1.27.09c-3.67-8-1.26-18.34,6.15-25.75C117.72,19.05,118,18.8,118.25,18.55ZM118.66,55a6.09,6.09,0,1,1-1.78-4.31A6.05,6.05,0,0,1,118.66,55Zm-6.5-35.56c-6.43,8.14-8.23,18.54-4.58,26.91a10,10,0,0,0-2.08,1.59A10,10,0,1,0,122,58.26a23.75,23.75,0,0,0,5.49.64,28.61,28.61,0,0,0,16.11-5.24,26.25,26.25,0,1,1-31.44-34.24ZM88.79,46.23a30.19,30.19,0,0,0,17.88,26.1v8.11l-26-26ZM77.94,70.95a9.8,9.8,0,0,1-.07-13.8L90,69.32l-6.87,6.87Zm8,8,6.86-6.87,3.07,3.07L89,82Zm20.74,20.74L91.77,84.77l6.86-6.87,8,8Zm17.06,25.77a17.59,17.59,0,0,1-12.89-13.95,10,10,0,0,1,11.21,2A10.09,10.09,0,0,1,123.73,125.45Zm4.07.55a13.79,13.79,0,0,0-1.29-13.17l9.72-9.72h12V126Zm76.79-17.33-20.09,20a34.71,34.71,0,0,1-47.74,1.22h11a15.35,15.35,0,0,0,0-30.69H137.36V77.59a1.95,1.95,0,1,0-3.9,0v22.77l-9.58,9.58a13.84,13.84,0,0,0-13.32-2.51V73.75a30,30,0,0,0,29.15-7.2l34.54,34.54-4.72,4.72a1.95,1.95,0,0,0,2.76,2.76L194,86.92a14.59,14.59,0,0,0,10.63,7Zm-52.45,16.47V104a11.44,11.44,0,0,1,0,21.17ZM198.92,87a10.71,10.71,0,0,1-1.91-2.6,17.55,17.55,0,0,1,19,0A10.72,10.72,0,0,1,198.92,87Zm9.56,21.66V93.9a14.59,14.59,0,0,0,10.6-7l8.43,8.43L211.32,111.5Zm5.6,5.59,16.19-16.19,3.43,3.43a2,2,0,0,0,2.76,0,7.13,7.13,0,0,1,9.69-.34l-22.59,22.59Zm14.44,14.46-2.2-2.2,22.61-22.61,2.2,2.2Z" transform="translate(-71.17 -14.64)" fill="#fff"/><path d="M92.86,173.35H89.08v11.46H85.72V173.35H81.94v-3.23H92.86Z" transform="translate(-71.17 -14.64)" fill="#fff"/><path d="M103.25,178.37v6.45H100.1v-6a1.73,1.73,0,0,0-1.83-1.91c-1.15,0-2,.67-2,2.16v5.73H93.17v-14.7h3.15v5.19a3.59,3.59,0,0,1,3-1.28C101.45,174,103.25,175.54,103.25,178.37Z" transform="translate(-71.17 -14.64)" fill="#fff"/><path d="M104.05,171.51a1.89,1.89,0,1,1,1.89,1.89A1.91,1.91,0,0,1,104.05,171.51Zm.31,2.81h3.15v10.5h-3.15Z" transform="translate(-71.17 -14.64)" fill="#fff"/><path d="M118.85,178.37v6.45H115.7v-6a1.73,1.73,0,0,0-1.83-1.91c-1.16,0-2,.67-2,2.16v5.73h-3.15v-10.5h3.15v1a3.59,3.59,0,0,1,3-1.28C117,174,118.85,175.54,118.85,178.37Z" transform="translate(-71.17 -14.64)" fill="#fff"/><path d="M126.48,184.82l-3.36-4.64v4.64H120v-14.7h3.15v8.8l3.15-4.6h3.67l-3.82,5.25,3.93,5.25Z" transform="translate(-71.17 -14.64)" fill="#fff"/><path d="M134.86,182.3a2.74,2.74,0,0,0,2-.8l2.52,1.45a5.33,5.33,0,0,1-4.58,2.16c-3.59,0-5.82-2.41-5.82-5.54a5.38,5.38,0,0,1,5.58-5.54,5.3,5.3,0,0,1,5.33,5.54,6.1,6.1,0,0,1-.13,1.26h-7.45A2.39,2.39,0,0,0,134.86,182.3Zm1.93-3.82a2.37,2.37,0,0,0-4.51,0Z" transform="translate(-71.17 -14.64)" fill="#fff"/><path d="M147,174.11v3.57c-1.3-.21-3.15.32-3.15,2.39v4.75h-3.15v-10.5h3.15v1.87A3.15,3.15,0,0,1,147,174.11Z" transform="translate(-71.17 -14.64)" fill="#fff"/><path d="M155.2,181.67c0,2.42-2.1,3.44-4.37,3.44a4.6,4.6,0,0,1-4.51-2.5l2.73-1.55a1.72,1.72,0,0,0,1.79,1.24c.76,0,1.13-.23,1.13-.65,0-1.16-5.16-.55-5.16-4.18,0-2.29,1.93-3.44,4.12-3.44a4.59,4.59,0,0,1,4.09,2.25l-2.69,1.45a1.52,1.52,0,0,0-1.41-.92c-.55,0-.88.21-.88.59C150,178.58,155.2,177.79,155.2,181.67Z" transform="translate(-71.17 -14.64)" fill="#fff"/><path d="M170.07,185.36l-1.3-1.41a6.52,6.52,0,0,1-3.8,1.15c-3,0-5.25-1.66-5.25-4.43a5,5,0,0,1,2.35-4.22,4.46,4.46,0,0,1-.61-2.33c0-2.48,1.91-4.3,4.72-4.3A5,5,0,0,1,171,173l-2.88,1.66c-.38-1-1-1.6-1.91-1.6a1.28,1.28,0,0,0-1.41,1.24,3.14,3.14,0,0,0,1.16,2.08l2.71,3a11,11,0,0,0,.69-2.31l2.81,1.6a10.77,10.77,0,0,1-1.34,3.09l1.85,2.06Zm-3.36-3.65-2.69-2.9-.13-.13a2.07,2.07,0,0,0-.78,1.64c0,1,.63,1.72,2.12,1.72A3.09,3.09,0,0,0,166.71,181.71Z" transform="translate(-71.17 -14.64)" fill="#fff"/><path d="M192.22,184.82h-3.36v-8.54l-3.8,6.24h-.38l-3.8-6.24v8.54h-3.36v-14.7h3.36l4,6.53,4-6.53h3.36Z" transform="translate(-71.17 -14.64)" fill="#fff"/><path d="M204.36,174.32v10.5h-3.15v-1a3.94,3.94,0,0,1-3.13,1.28,5.57,5.57,0,0,1,0-11.09,3.94,3.94,0,0,1,3.13,1.28v-1Zm-3.15,5.25a2.5,2.5,0,1,0-2.5,2.56A2.4,2.4,0,0,0,201.21,179.57Z" transform="translate(-71.17 -14.64)" fill="#fff"/><path d="M212.13,184.82l-3.36-4.64v4.64h-3.15v-14.7h3.15v8.8l3.15-4.6h3.67l-3.82,5.25,3.93,5.25Z" transform="translate(-71.17 -14.64)" fill="#fff"/><path d="M220.51,182.3a2.74,2.74,0,0,0,2-.8L225,183a5.33,5.33,0,0,1-4.58,2.16c-3.59,0-5.82-2.41-5.82-5.54a5.38,5.38,0,0,1,5.58-5.54,5.3,5.3,0,0,1,5.33,5.54,6.1,6.1,0,0,1-.13,1.26H218A2.39,2.39,0,0,0,220.51,182.3Zm1.93-3.82a2.36,2.36,0,0,0-4.51,0Z" transform="translate(-71.17 -14.64)" fill="#fff"/><path d="M232.61,174.11v3.57c-1.3-.21-3.15.32-3.15,2.39v4.75h-3.15v-10.5h3.15v1.87A3.15,3.15,0,0,1,232.61,174.11Z" transform="translate(-71.17 -14.64)" fill="#fff"/><path d="M240.86,181.67c0,2.42-2.1,3.44-4.37,3.44a4.6,4.6,0,0,1-4.51-2.5l2.73-1.55a1.72,1.72,0,0,0,1.78,1.24c.76,0,1.13-.23,1.13-.65,0-1.16-5.17-.55-5.17-4.18,0-2.29,1.93-3.44,4.12-3.44a4.59,4.59,0,0,1,4.09,2.25L238,177.72a1.52,1.52,0,0,0-1.41-.92c-.54,0-.88.21-.88.59C235.7,178.58,240.86,177.79,240.86,181.67Z" transform="translate(-71.17 -14.64)" fill="#fff"/><path d="M241.07,183.12a2,2,0,1,1,2,2A2,2,0,0,1,241.07,183.12Z" transform="translate(-71.17 -14.64)" fill="#fff"/></svg>