<svg id="869f55e5-f6a3-4b4f-bbf1-557e9b4991e4" data-name="Layer 1" xmlns="http://www.w3.org/2000/svg" viewBox="0 0 126.56 163.85"><title>Knife</title><path d="M220.61,56.71l-1.09-.64c-18.73-11-16.93-31.39-16.84-32.25l.24-2.36-2.37-.07c-.56,0-13.4-.28-21.3,7.41-3.94,3.83-5.94,8.92-5.94,15.11V80.83H131.47a24.23,24.23,0,0,0-14.32,4.55c-4.83,3.57-10.58,10.65-10.66,24.14,0,.43-.08.84-.09,1.24,0,13,5.8,19.2,10.67,22.15a21.79,21.79,0,0,0,11.32,3h72.86l.15,0c6.65-.89,19.22-7.07,19.22-24.06,0-.39,0-.75,0-1.12h0ZM119.76,88.92a19.81,19.81,0,0,1,11.71-3.69h41.85V89.1h-45A21.51,21.51,0,0,0,116,92.6,19.85,19.85,0,0,1,119.76,88.92Zm81.17,42.64H128.38a17.4,17.4,0,0,1-9-2.41c-5.67-3.44-8.55-9.63-8.55-18.3,0-.71,1-17.37,17.53-17.37h71.11a17.57,17.57,0,0,1,8,1.82c5.85,3,8.82,8.57,8.82,16.57C216.21,128.54,202.53,131.3,200.93,131.56ZM213.37,94V67.7a2.2,2.2,0,1,0-4.39,0V91.2a22.09,22.09,0,0,0-9.56-2.1H177.71V43.92c0-5,1.54-9,4.59-11.95,4.8-4.68,12.22-5.82,15.9-6.1,0,6.33,1.65,23,18,33.32V97.06A19.12,19.12,0,0,0,213.37,94Z" transform="translate(-100.22 -21.4)" fill="#fff"/><path d="M128.92,104.56a7.24,7.24,0,1,0,7.24,7.24A7.24,7.24,0,0,0,128.92,104.56Zm0,10.08a2.84,2.84,0,1,1,2.84-2.84A2.84,2.84,0,0,1,128.92,114.64Z" transform="translate(-100.22 -21.4)" fill="#fff"/><path d="M114.91,185h-3.36v-8.54l-3.8,6.24h-.38l-3.8-6.24V185h-3.36v-14.7h3.36l4,6.53,4-6.53h3.36Z" transform="translate(-100.22 -21.4)" fill="#fff"/><path d="M115.76,179.71a5.56,5.56,0,1,1,5.56,5.54A5.5,5.5,0,0,1,115.76,179.71Zm8,0a2.42,2.42,0,1,0-2.42,2.48A2.35,2.35,0,0,0,123.74,179.71Z" transform="translate(-100.22 -21.4)" fill="#fff"/><path d="M133.92,174.25v3.57c-1.3-.21-3.15.31-3.15,2.39V185h-3.15v-10.5h3.15v1.87A3.15,3.15,0,0,1,133.92,174.25Z" transform="translate(-100.22 -21.4)" fill="#fff"/><path d="M139.36,182.44a2.74,2.74,0,0,0,2-.8l2.52,1.45a5.33,5.33,0,0,1-4.58,2.16c-3.59,0-5.82-2.42-5.82-5.54a5.38,5.38,0,0,1,5.58-5.54,5.3,5.3,0,0,1,5.33,5.54,6.11,6.11,0,0,1-.13,1.26h-7.45A2.39,2.39,0,0,0,139.36,182.44Zm1.93-3.82a2.36,2.36,0,0,0-4.51,0Z" transform="translate(-100.22 -21.4)" fill="#fff"/><path d="M164.26,174.46,160.91,185H158l-1.68-5.61L154.61,185h-2.94l-3.36-10.5h3.36l1.51,5.63,1.64-5.63h2.94l1.64,5.63,1.51-5.63Z" transform="translate(-100.22 -21.4)" fill="#fff"/><path d="M164.16,171.64a1.89,1.89,0,1,1,1.89,1.89A1.91,1.91,0,0,1,164.16,171.64Zm.32,2.81h3.15V185h-3.15Z" transform="translate(-100.22 -21.4)" fill="#fff"/><path d="M172.88,177.48v3.72c0,.9.78,1,2.16.9V185c-4.11.42-5.31-.82-5.31-3.76v-3.72H168v-3h1.68v-2l3.15-.94v2.94H175v3Z" transform="translate(-100.22 -21.4)" fill="#fff"/><path d="M185.85,178.51V185H182.7v-6a1.73,1.73,0,0,0-1.83-1.91c-1.15,0-2,.67-2,2.16V185h-3.15v-14.7h3.15v5.19a3.59,3.59,0,0,1,3-1.28C184,174.16,185.85,175.68,185.85,178.51Z" transform="translate(-100.22 -21.4)" fill="#fff"/><path d="M191.17,169.63h3.15V185h-3.15Z" transform="translate(-100.22 -21.4)" fill="#fff"/><path d="M200.91,182.44a2.74,2.74,0,0,0,2-.8l2.52,1.45a5.33,5.33,0,0,1-4.58,2.16c-3.59,0-5.82-2.42-5.82-5.54a5.38,5.38,0,0,1,5.59-5.54,5.3,5.3,0,0,1,5.33,5.54,6.11,6.11,0,0,1-.12,1.26h-7.45A2.39,2.39,0,0,0,200.91,182.44Zm1.93-3.82a2.37,2.37,0,0,0-4.52,0Z" transform="translate(-100.22 -21.4)" fill="#fff"/><path d="M214.43,181.81c0,2.42-2.1,3.44-4.37,3.44a4.6,4.6,0,0,1-4.52-2.5l2.73-1.55a1.73,1.73,0,0,0,1.79,1.24c.76,0,1.13-.23,1.13-.65,0-1.16-5.16-.55-5.16-4.18,0-2.29,1.93-3.44,4.12-3.44a4.59,4.59,0,0,1,4.09,2.25l-2.69,1.45a1.53,1.53,0,0,0-1.41-.92c-.55,0-.88.21-.88.59C209.27,178.72,214.43,177.92,214.43,181.81Z" transform="translate(-100.22 -21.4)" fill="#fff"/><path d="M222.58,181.81c0,2.42-2.1,3.44-4.37,3.44a4.6,4.6,0,0,1-4.51-2.5l2.73-1.55a1.73,1.73,0,0,0,1.79,1.24c.76,0,1.13-.23,1.13-.65,0-1.16-5.17-.55-5.17-4.18,0-2.29,1.93-3.44,4.12-3.44a4.59,4.59,0,0,1,4.09,2.25l-2.69,1.45a1.52,1.52,0,0,0-1.41-.92c-.54,0-.88.21-.88.59C217.42,178.72,222.58,177.92,222.58,181.81Z" transform="translate(-100.22 -21.4)" fill="#fff"/><path d="M222.79,183.25a2,2,0,1,1,2,2A2,2,0,0,1,222.79,183.25Z" transform="translate(-100.22 -21.4)" fill="#fff"/></svg>