<svg id="7c4ab2e2-4bfc-47a8-abbc-7a8ae2bc295b" data-name="Layer 1" xmlns="http://www.w3.org/2000/svg" viewBox="0 0 84.48 12.38"><title>manifest-award-css-design-awards</title><path d="M3.59,21.46,5.12,20l2.5-2.47a.49.49,0,0,1,.3-.14h3.91l-4,4.11,4,4.12-2,2.07-1-.95L3.75,21.64l-.16-.13S3.59,21.48,3.59,21.46Z" transform="translate(-3.59 -17.36)" fill="#b2b2b2"/><path d="M17.27,25.58l-3.05,3.12q-.46.47-.94.91a.47.47,0,0,1-.28.13H9.08l4-4.13L9,21.55l2.07-2.06Z" transform="translate(-3.59 -17.36)" fill="#b2b2b2"/><path d="M33.64,26.64V21s0,0,0,0a12.1,12.1,0,0,1,3,.13,2.4,2.4,0,0,1,1.83,2.34A3.9,3.9,0,0,1,38.27,25a2.43,2.43,0,0,1-2.1,1.58A24.65,24.65,0,0,1,33.64,26.64Zm1.53-4.44v3.2a1.29,1.29,0,0,0,1.66-1.1,4.16,4.16,0,0,0,0-1.24.91.91,0,0,0-.71-.74A6.62,6.62,0,0,0,35.17,22.2Z" transform="translate(-3.59 -17.36)" fill="#b2b2b2"/><path d="M51.61,26.35C51,25.7,51,25.5,51.7,25c0,0,0,0,0-.06A1.29,1.29,0,0,1,51,23.41a1.4,1.4,0,0,1,1.22-1.15,5.81,5.81,0,0,1,1.09,0l1.13,0h.83c0,.23.07.49,0,.66s-.34.23-.53.35a1.37,1.37,0,0,1-.46,1.62,2.06,2.06,0,0,1-1.21.34c-.19,0-.39,0-.61,0s0,.25.14.31a1.43,1.43,0,0,0,.38.05l1,0a1.18,1.18,0,0,1,1.19.72,1.41,1.41,0,0,1-.34,1.56,2.62,2.62,0,0,1-.77.44,3.93,3.93,0,0,1-2.34.14,1.93,1.93,0,0,1-.7-.35,1,1,0,0,1,.08-1.56A4.19,4.19,0,0,1,51.61,26.35Zm1.21,1.28v.06a7.06,7.06,0,0,0,.9-.23A.51.51,0,0,0,54,27.1c0-.05-.17-.19-.27-.2-.42,0-.85,0-1.27,0a.35.35,0,0,0-.38.37.4.4,0,0,0,.38.41A3.2,3.2,0,0,0,52.82,27.63Zm-.34-3.93a1.28,1.28,0,0,0,.09.42.67.67,0,0,0,.33.27.32.32,0,0,0,.4-.19,1,1,0,0,0,0-1,.53.53,0,0,0-.39-.21C52.64,23,52.5,23.26,52.48,23.7Z" transform="translate(-3.59 -17.36)" fill="#b2b2b2"/><path d="M56,26.74V22.32h1c.05,0,.12.07.15.13s.1.27.16.44l.17-.14a1.75,1.75,0,0,1,1.92-.36,1.37,1.37,0,0,1,.9,1.44c0,.91,0,1.83,0,2.75,0,.07-.09.2-.14.2-.45,0-.9,0-1.38,0,0-.12,0-.22,0-.32,0-.83,0-1.66,0-2.49,0-.42-.27-.64-.65-.57a.6.6,0,0,0-.39.27,2,2,0,0,0-.19.76c0,.68,0,1.37,0,2.05,0,.19,0,.25-.24.25C56.86,26.73,56.44,26.74,56,26.74Z" transform="translate(-3.59 -17.36)" fill="#b2b2b2"/><path d="M43.23,25.35c0,.36,0,.68,0,1a.25.25,0,0,1-.14.18,3.69,3.69,0,0,1-2.74,0,1.76,1.76,0,0,1-1.07-1.6,5,5,0,0,1,.1-1.34,1.66,1.66,0,0,1,1.49-1.35,4,4,0,0,1,1.22,0A1.7,1.7,0,0,1,43.5,24c0,.3,0,.59,0,.92h-2.7a.79.79,0,0,0,.77.79A2.94,2.94,0,0,0,43,25.46ZM42,23.92a.57.57,0,0,0-.5-.67.65.65,0,0,0-.71.67Z" transform="translate(-3.59 -17.36)" fill="#b2b2b2"/><path d="M44.3,26.55V25.37c.36.1.71.21,1.06.28a2.39,2.39,0,0,0,.69,0c.09,0,.18-.12.27-.19-.06-.07-.11-.17-.19-.21-.38-.2-.78-.38-1.17-.58a1.21,1.21,0,0,1-.61-1.35,1.09,1.09,0,0,1,.89-.94,3.75,3.75,0,0,1,2.52.24l-.39.93c-.44-.09-.85-.18-1.27-.25-.1,0-.22.08-.33.13.08.09.14.21.23.26.33.16.67.29,1,.45a1.14,1.14,0,0,1,.71,1.23A1.22,1.22,0,0,1,47,26.55,3.93,3.93,0,0,1,44.3,26.55Z" transform="translate(-3.59 -17.36)" fill="#b2b2b2"/><path d="M67.54,26l1-3.22c0-.11.08-.28.15-.3a2.19,2.19,0,0,1,.61,0s.07.11.09.17l.94,3.24.06.06c.05-.18.1-.35.14-.51l.65-2.58c.1-.41.1-.41.53-.4l.21,0-.32,1.19c-.26,1-.52,1.91-.77,2.86a.24.24,0,0,1-.28.22c-.55,0-.56,0-.72-.52-.29-.93-.56-1.86-.84-2.79,0-.06,0-.12-.06-.16-.34,1.09-.68,2.19-1,3.28a.22.22,0,0,1-.26.18c-.59,0-.59,0-.74-.55l-1-3.57s0-.08,0-.16c.21,0,.4,0,.59,0s.11.08.12.13c.28,1,.54,2.09.81,3.14Z" transform="translate(-3.59 -17.36)" fill="#b2b2b2"/><path d="M83.28,20.61h.63v6.06h-.49l-.1-.49-.13.1a1.76,1.76,0,0,1-1.87.4,1.62,1.62,0,0,1-1.09-1.42,3.77,3.77,0,0,1,.06-1.57,1.7,1.7,0,0,1,2.89-.79l.11.11V20.61Zm0,3.92a7.44,7.44,0,0,0-.09-.76,1,1,0,0,0-.9-.88,1.11,1.11,0,0,0-1.31.65,2.87,2.87,0,0,0-.17,1.63,1,1,0,0,0,.85,1,1.16,1.16,0,0,0,1.57-1C83.27,25,83.26,24.81,83.28,24.53Z" transform="translate(-3.59 -17.36)" fill="#b2b2b2"/><path d="M65.89,26.68a4.65,4.65,0,0,1-.62,0c-.07,0-.16-.11-.19-.19q-.29-.7-.55-1.41a.25.25,0,0,0-.28-.19c-.62,0-1.25,0-1.87,0a.27.27,0,0,0-.29.21c-.16.43-.34.86-.49,1.29-.08.23-.19.34-.44.3a2.14,2.14,0,0,0-.32,0c0-.1.05-.18.08-.26.69-1.74,1.39-3.48,2.08-5.22.09-.22.21-.24.4-.24a.31.31,0,0,1,.35.25c.68,1.76,1.37,3.51,2.05,5.26Zm-2.53-4.91-.87,2.48h1.78Z" transform="translate(-3.59 -17.36)" fill="#b2b2b2"/><path d="M29,25.86c.49.09.94.2,1.4.24a2.84,2.84,0,0,0,.86-.08.74.74,0,0,0,.59-.6.76.76,0,0,0-.28-.87c-.36-.22-.76-.39-1.13-.59a4,4,0,0,1-1-.57,1.47,1.47,0,0,1,.8-2.51,3.66,3.66,0,0,1,2.16.27l-.12.56c-.55-.06-1.08-.16-1.61-.16a.84.84,0,0,0-.88,1.11.69.69,0,0,0,.42.52l1.18.54.37.18a1.27,1.27,0,0,1,.8,1.54,1.53,1.53,0,0,1-1.21,1.18,4.33,4.33,0,0,1-2,0c-.27-.06-.42-.19-.37-.49A1.23,1.23,0,0,0,29,25.86Z" transform="translate(-3.59 -17.36)" fill="#b2b2b2"/><path d="M24.69,25.86c.52.1,1,.22,1.52.29a2.19,2.19,0,0,0,.76-.07.84.84,0,0,0,.33-1.47c-.36-.23-.75-.39-1.13-.59a4.09,4.09,0,0,1-1-.6A1.48,1.48,0,0,1,26,20.94a3.84,3.84,0,0,1,2.17.29L28,21.7c-.51-.07-1-.14-1.48-.19a1.1,1.1,0,0,0-.4.05.73.73,0,0,0-.63.68.81.81,0,0,0,.46.93c.58.28,1.19.52,1.74.85a1.41,1.41,0,0,1,.22,2.14,1.88,1.88,0,0,1-1,.52,4.48,4.48,0,0,1-1.88-.1c-.23-.06-.36-.16-.31-.42A1.59,1.59,0,0,0,24.69,25.86Z" transform="translate(-3.59 -17.36)" fill="#b2b2b2"/><path d="M23.78,21.72a9.79,9.79,0,0,0-1.24-.21,1.81,1.81,0,0,0-2,1.51,3.24,3.24,0,0,0,.06,1.79,1.76,1.76,0,0,0,2,1.3c.4,0,.79-.12,1.19-.18,0,0,0,0,0,0,0,.65.14.52-.54.68a3.74,3.74,0,0,1-1.6,0A2.2,2.2,0,0,1,19.9,25a4,4,0,0,1-.05-2.25,2.61,2.61,0,0,1,2.86-1.9,2.8,2.8,0,0,1,1.32.34Z" transform="translate(-3.59 -17.36)" fill="#b2b2b2"/><path d="M73.07,23.18l-.17-.47a2.88,2.88,0,0,1,1.94-.34,1.07,1.07,0,0,1,.95,1.08c0,.9,0,1.81,0,2.72,0,.15,0,.3,0,.52-.19,0-.39,0-.49-.13s-.09-.29-.13-.48l-.15.14a1.7,1.7,0,0,1-1.87.48,1.08,1.08,0,0,1-.79-1,1.1,1.1,0,0,1,.51-1.15,2.69,2.69,0,0,1,1.29-.35l1-.06c.22-.86-.34-1.41-1.25-1.21C73.63,23,73.37,23.08,73.07,23.18Zm2.06,1.47a6.13,6.13,0,0,0-.81,0,4,4,0,0,0-.88.22.62.62,0,0,0-.35.63.65.65,0,0,0,.37.63,1.2,1.2,0,0,0,1.67-.77A3.67,3.67,0,0,0,75.13,24.64Z" transform="translate(-3.59 -17.36)" fill="#b2b2b2"/><path d="M48.62,22.29h1.5v4.38h-1.5Z" transform="translate(-3.59 -17.36)" fill="#b2b2b2"/><path d="M85,25.9a3.21,3.21,0,0,0,1.68.29c.29,0,.58-.08.69-.42a.46.46,0,0,0-.14-.55,4.84,4.84,0,0,0-.73-.41c-.3-.14-.62-.24-.91-.39a1,1,0,0,1-.58-1,1.08,1.08,0,0,1,.76-.91,2.83,2.83,0,0,1,1.59,0c.18,0,.35.11.56.18l-.21.45c-.46-.07-.89-.14-1.32-.19a1.07,1.07,0,0,0-.4.06.49.49,0,0,0-.38.41.46.46,0,0,0,.24.5c.25.14.52.25.78.38a6.12,6.12,0,0,1,1,.51,1,1,0,0,1-.12,1.8,2.77,2.77,0,0,1-2.4,0c-.05,0-.08-.11-.11-.17a.26.26,0,0,1,0-.1C85,26.16,85,26,85,25.9Z" transform="translate(-3.59 -17.36)" fill="#b2b2b2"/><path d="M77.8,26.65l-.08,0c-.57,0-.57,0-.57-.53q0-1.72,0-3.44v-.26l.07,0c.42,0,.42,0,.49.37,0,.13,0,.25.06.46a1.57,1.57,0,0,1,1.83-.87l-.07.57h-.35a1.24,1.24,0,0,0-1.32,1.12,12.18,12.18,0,0,0-.05,1.3C77.79,25.79,77.8,26.22,77.8,26.65Z" transform="translate(-3.59 -17.36)" fill="#b2b2b2"/><path d="M49.27,21.82a.67.67,0,0,1-.66-1,.89.89,0,0,1,.92-.35.61.61,0,0,1,.6.73C50.12,21.62,49.85,21.81,49.27,21.82Z" transform="translate(-3.59 -17.36)" fill="#b2b2b2"/></svg>