<svg id="5bbf43a0-b452-4f4f-ac95-f67f37fad203" data-name="Layer 1" xmlns="http://www.w3.org/2000/svg" viewBox="0 0 115.49 165.99"><title>Rocket</title><path d="M186.09,72.69a12,12,0,1,0-12-12A12,12,0,0,0,186.09,72.69Zm0-19.75a7.75,7.75,0,1,1-7.75,7.75A7.76,7.76,0,0,1,186.09,52.94Z" transform="translate(-105.75 -19.26)" fill="#fff"/><path d="M220.63,121.86,204.74,92.08c7.81-12.64,13.35-27,13.42-42.2.09-18.39-7.77-29.25-8.11-29.71l-.56-.76-.95-.09c-.07,0-.7-.06-1.8-.06-7,0-36.66,2.46-57.16,41.93H116.21a5,5,0,0,0-4.27,2.44l-5.5,9.32a5,5,0,0,0,1.71,6.77L136.74,96.9c-.24,1-.48,2-.72,3.1a5.39,5.39,0,0,0,2.58,5.86l7.13,4.12c-1.5,3-6.61,14.48,1,19.83l.24.17.28.1a6.88,6.88,0,0,0,2.14.29c2.92,0,8.43-1.4,14.1-10.12l7.77,4.49a5.67,5.67,0,0,0,2.83.76A5.6,5.6,0,0,0,178,124c.76-.71,1.52-1.43,2.28-2.17l27.94,15.92a5.28,5.28,0,0,0,2.62.69,5.34,5.34,0,0,0,4.61-2.62l5.12-8.73A5.36,5.36,0,0,0,220.63,121.86ZM206.74,23.51h.42c1.71,2.75,6.88,12.3,6.74,26.64-.18,18.38-9,37.89-25.7,57.13L145.34,82.23C164.06,26.59,199.27,23.51,206.74,23.51ZM116.21,65.44h31.27a148.28,148.28,0,0,0-7.42,19.32L113.7,69l1.9-3.23A.71.71,0,0,1,116.21,65.44Zm-5.86,10.62a.7.7,0,0,1-.24-1l1.43-2.43L138.81,89q-.5,1.78-1,3.62Zm38.54,50c-4.09-3.35-.66-11.46.55-14l10.38,6C154.46,126.24,149.91,126.22,148.89,126.1ZM175,120.87a1.41,1.41,0,0,1-1.64.17l-32.67-18.87a1.17,1.17,0,0,1-.56-1.25c1.16-5.19,2.44-10,3.83-14.55l41.3,24.14Q180.56,115.72,175,120.87ZM210.28,134l-26.9-15.32q1.39-1.4,2.78-2.87l26.69,15.89-1.12,1.91A1.07,1.07,0,0,1,210.28,134Zm6.58-9.12L215,128.06l-25.89-15.42a148.9,148.9,0,0,0,13-16.48l14.78,27.69A1.06,1.06,0,0,1,216.85,124.91Z" transform="translate(-105.75 -19.26)" fill="#fff"/><path d="M142.56,180.65c0,2.6-2.12,4.3-4.75,4.3h-6.17v-14.7h5.75c2.56,0,4.64,1.66,4.64,4.2a3.68,3.68,0,0,1-1.28,2.88A3.79,3.79,0,0,1,142.56,180.65ZM135,173.41V176h2.39a1.3,1.3,0,0,0,0-2.6Zm4.2,7a1.33,1.33,0,0,0-1.39-1.41H135v2.81h2.81A1.33,1.33,0,0,0,139.2,180.4Z" transform="translate(-105.75 -19.26)" fill="#fff"/><path d="M148.63,182.44a2.74,2.74,0,0,0,2-.8l2.52,1.45a5.33,5.33,0,0,1-4.58,2.16c-3.59,0-5.82-2.42-5.82-5.54a5.38,5.38,0,0,1,5.58-5.54,5.3,5.3,0,0,1,5.33,5.54,6.11,6.11,0,0,1-.13,1.26h-7.45A2.39,2.39,0,0,0,148.63,182.44Zm1.93-3.82a2.37,2.37,0,0,0-4.51,0Z" transform="translate(-105.75 -19.26)" fill="#fff"/><path d="M162.45,174.46h2v3h-2V185H159.3v-7.47h-1.41v-3h1.41c0-2.94,1.62-4.7,5.1-4.49v3C163.23,172.88,162.45,173.24,162.45,174.46Z" transform="translate(-105.75 -19.26)" fill="#fff"/><path d="M175,174.46V185h-3.15v-1a4,4,0,0,1-3.13,1.28,5.57,5.57,0,0,1,0-11.09,3.94,3.94,0,0,1,3.13,1.28v-1Zm-3.15,5.25a2.5,2.5,0,1,0-2.5,2.56A2.4,2.4,0,0,0,171.81,179.71Z" transform="translate(-105.75 -19.26)" fill="#fff"/><path d="M184.27,181.81c0,2.42-2.1,3.44-4.37,3.44a4.6,4.6,0,0,1-4.51-2.5l2.73-1.55a1.72,1.72,0,0,0,1.78,1.24c.76,0,1.13-.23,1.13-.65,0-1.16-5.17-.55-5.17-4.18,0-2.29,1.93-3.44,4.12-3.44a4.59,4.59,0,0,1,4.09,2.25l-2.69,1.45a1.52,1.52,0,0,0-1.41-.92c-.54,0-.88.21-.88.59C179.1,178.72,184.27,177.92,184.27,181.81Z" transform="translate(-105.75 -19.26)" fill="#fff"/><path d="M188.47,177.48v3.72c0,.9.78,1,2.16.9V185c-4.12.42-5.31-.82-5.31-3.76v-3.72h-1.68v-3h1.68v-2l3.15-.94v2.94h2.16v3Z" transform="translate(-105.75 -19.26)" fill="#fff"/><path d="M191.37,183.25a2,2,0,1,1,2,2A2,2,0,0,1,191.37,183.25Zm.11-8.8v-4.2h3.78v4.2l-.63,5.25H192.1Z" transform="translate(-105.75 -19.26)" fill="#fff"/></svg>