<svg id="1369ca61-c584-414b-b1ad-19051f09bfe3" data-name="Layer 1" xmlns="http://www.w3.org/2000/svg" viewBox="0 0 71.42 8.69"><title>manifest-award-design-licks</title><path d="M65.83,27.71H65l-5.38-6.78a4.46,4.46,0,0,0-.15.74c0,1.68,0,3.36,0,5,0,.3,0,.59,0,1l-.68,0a55.06,55.06,0,0,1-.07-8.24l.84-.05,5.31,6.69a5.47,5.47,0,0,0,.18-2.23c0-.7,0-1.41,0-2.12s0-1.47,0-2.27l.72,0A67.06,67.06,0,0,1,65.83,27.71Z" transform="translate(-10.13 -19.21)" fill="#b2b2b2"/><path d="M50,21.11v6.57h-.8V19.5l.84-.09,5.37,6.81v-6.7l.84-.08v8.19l-.74.12-5.3-6.67Z" transform="translate(-10.13 -19.21)" fill="#b2b2b2"/><path d="M80.58,27.76C80,26.76,79.53,25.89,79,25a1.59,1.59,0,0,0-1.65-.9c-.29,0-.59,0-1,0,0,.67,0,1.26,0,1.85a4.33,4.33,0,0,1-.15,1.73l-.69,0a2,2,0,0,1-.11-.43c0-1.58,0-3.16,0-4.74,0-.74,0-1.47,0-2.21a7.16,7.16,0,0,1,.1-.84c1.18,0,2.28,0,3.39,0A2.24,2.24,0,0,1,80.85,21a2.21,2.21,0,0,1-.77,2.35c-.24.18-.5.32-.75.48l2.21,3.79Zm-4.1-4.48c.81,0,1.51,0,2.2,0A1.53,1.53,0,0,0,80,21.78a1.48,1.48,0,0,0-1.2-1.51,11.88,11.88,0,0,0-2.47,0C76.54,21.36,76.12,22.37,76.48,23.28Z" transform="translate(-10.13 -19.21)" fill="#b2b2b2"/><path d="M73.57,27.7H68.45c-.08,0-.15-.12-.19-.15V19.61a21.57,21.57,0,0,1,5.09-.09v.56a6,6,0,0,1-2.11.14c-.66,0-1.33,0-2,0v2.85h3.29a1.73,1.73,0,0,1,.12.36,3.24,3.24,0,0,1,0,.46H69.19v2.93a8.76,8.76,0,0,0,2.15.09c.7,0,1.41,0,2.11,0a1.12,1.12,0,0,1,.14.29A3.06,3.06,0,0,1,73.57,27.7Z" transform="translate(-10.13 -19.21)" fill="#b2b2b2"/><path d="M19,20.85v1.07a3.92,3.92,0,0,0,1.51,1.19,15.57,15.57,0,0,1,1.38.81,2.09,2.09,0,0,1,.6,2.85,1.88,1.88,0,0,1-1,.8,3.93,3.93,0,0,1-3.47-.2v-.88c1.28.56,2.51,1,3.68,0,.25-1.31.15-1.55-.88-2.19-.4-.25-.82-.46-1.21-.71a6.45,6.45,0,0,1-.9-.64,1.93,1.93,0,0,1,.48-3.31,3.06,3.06,0,0,1,2.52-.28,7,7,0,0,0,.69.16v.8c-.64-.09-1.24-.2-1.86-.25A1.6,1.6,0,0,0,19,20.85Z" transform="translate(-10.13 -19.21)" fill="#b2b2b2"/><path d="M24.5,27.48v-1c1.32.44,2.63,1.15,3.78-.29V25.12c-.36-.28-.75-.63-1.19-.93s-1.13-.71-1.71-1A2,2,0,0,1,26,19.47a3.37,3.37,0,0,1,2.89.14l.07.75c-.15,0-.26,0-.33,0a3.08,3.08,0,0,0-1.86-.29,1.51,1.51,0,0,0-1.19.67,1,1,0,0,0,.08,1.37,6.6,6.6,0,0,0,1.46,1,5.82,5.82,0,0,1,2,1.6l.21.93a2.28,2.28,0,0,1-.94,1.7,3.42,3.42,0,0,1-2,.49A10.49,10.49,0,0,1,24.5,27.48Z" transform="translate(-10.13 -19.21)" fill="#b2b2b2"/><path d="M16.33,26.67l.09.66a4.44,4.44,0,0,1-3.69.3,4.12,4.12,0,0,1-2.49-4.8,4.59,4.59,0,0,1,1.21-2.38,4.16,4.16,0,0,1,4-1.09l.88.18.13.86a1.25,1.25,0,0,1-.37,0,3.83,3.83,0,0,0-2.84-.13,2.69,2.69,0,0,0-1.43,1.05,4.15,4.15,0,0,0-.33,4.12A3,3,0,0,0,14.92,27C15.37,26.93,15.82,26.8,16.33,26.67Z" transform="translate(-10.13 -19.21)" fill="#b2b2b2"/><path d="M38.64,26.27l4.66-6.81.91,0-5.57,8.13a36.25,36.25,0,0,1-2.23-3.11c-.7-1-1.38-2-2.14-3.15l.82-.1C36.32,22.85,37.25,24.64,38.64,26.27Z" transform="translate(-10.13 -19.21)" fill="#b2b2b2"/><path d="M36.82,27l-.35.57a1.32,1.32,0,0,1-.33-.23q-1.13-1.6-2.23-3.22l-3.16-4.64.87-.05Z" transform="translate(-10.13 -19.21)" fill="#b2b2b2"/><path d="M46,19.47h.63a70.77,70.77,0,0,1,.07,8.19l-.62.05A67.82,67.82,0,0,1,46,19.47Z" transform="translate(-10.13 -19.21)" fill="#b2b2b2"/><path d="M38.62,24.4l-.5-.59L41,19.49H42Z" transform="translate(-10.13 -19.21)" fill="#b2b2b2"/></svg>