<svg id="c81c325b-84cb-4a85-a519-913308f40a94" data-name="Layer 1" xmlns="http://www.w3.org/2000/svg" viewBox="0 0 17.6 34.85"><title>mobile</title><g opacity="0.4"><path d="M37,23.49Q37,16,37,8.58c0-1.73.72-2.45,2.46-2.45H52.11c1.71,0,2.5.75,2.51,2.45,0,10,0,19.94,0,29.91A2.31,2.31,0,0,1,52.11,41c-4.2-.08-8.41,0-12.61,0-1.75,0-2.46-.72-2.46-2.45q0-7.5,0-15Zm1.28-14.4V36.57h14.9V9.09ZM47,38.79a1.32,1.32,0,0,0-1.12-1.16,1.26,1.26,0,0,0-1.15,1.1,1.15,1.15,0,0,0,1.14,1.18A1.24,1.24,0,0,0,47,38.79ZM44.15,7.68a4.36,4.36,0,0,0,3.26.07A6,6,0,0,0,44.15,7.68Z" transform="translate(-37.04 -6.13)" fill="#0c0c0c"/><path d="M38.32,9.09h14.9V36.57H38.32Zm9.92,7.71L48,16.13c-.19-.14-.37-.39-.56-.4-1.25,0-2.5,0-3.84,0L39.37,28.63c1.22,0,2.26,0,3.29,0A1.46,1.46,0,0,0,44,27.55c.34-1.09.69-2.18,1.09-3.25.22-.6.53-1.17.8-1.75L47.84,28c.31.2.61.54.93.56,1.12.07,2.25,0,3.47,0-.47-1.42-.87-2.71-1.31-4C50,22,49.14,19.41,48.24,16.8Z" transform="translate(-37.04 -6.13)" fill="#fdfdfd"/><path d="M47,38.79a1.24,1.24,0,0,1-1.13,1.12,1.15,1.15,0,0,1-1.14-1.18,1.26,1.26,0,0,1,1.15-1.1A1.32,1.32,0,0,1,47,38.79Z" transform="translate(-37.04 -6.13)" fill="#767676"/><path d="M44.15,7.68a6,6,0,0,1,3.26.07A4.36,4.36,0,0,1,44.15,7.68Z" transform="translate(-37.04 -6.13)" fill="#fbfbfb"/><path d="M45.94,22.54c-.27.58-.58,1.15-.8,1.75-.39,1.07-.74,2.16-1.09,3.25a1.46,1.46,0,0,1-1.39,1.07c-1,.06-2.07,0-3.29,0l4.29-12.91c1.34,0,2.59,0,3.84,0,.19,0,.37.26.56.4-.11.06-.3.1-.33.19-.44,1.31-.89,2.62-1.28,4C46.22,21,46.1,21.78,45.94,22.54Z" transform="translate(-37.04 -6.13)" fill="#858585"/><path d="M48.24,16.8c.9,2.61,1.81,5.22,2.7,7.84.43,1.27.84,2.56,1.31,4-1.23,0-2.35,0-3.47,0-.32,0-.62-.37-.93-.56A6,6,0,0,0,48,27c0-2.95,0-5.9,0-8.85A9.17,9.17,0,0,1,48.24,16.8Z" transform="translate(-37.04 -6.13)" fill="#929292"/><path d="M48.24,16.8a9.17,9.17,0,0,0-.19,1.31c0,2.95,0,5.9,0,8.85a6,6,0,0,1-.2,1.07l-1.91-5.48c.17-.76.29-1.53.51-2.27.39-1.33.84-2.64,1.28-4,0-.09.22-.12.33-.19Z" transform="translate(-37.04 -6.13)" fill="#444"/></g></svg>