<svg id="d91557e6-aba3-47d6-8814-3e53a9e15323" data-name="Layer 1" xmlns="http://www.w3.org/2000/svg" viewBox="0 0 23.52 23.64"><title>search</title><g opacity="0.6"><path d="M45.89,23.78a6.61,6.61,0,0,0-.38.78c-1,2.89-1.92,5.79-2.89,8.68a2.88,2.88,0,0,1-2.95,2.13h-4.9c-.2,0-.4,0-.7,0L41.91,11.8c.2,0,.38,0,.56,0,2.23,0,4.46,0,6.69,0,.21,0,.52-.16.63.21-.28.81-.57,1.63-.85,2.44s-.46,1.39-.69,2.08l-1,2.9c-.24.71-.5,1.42-.73,2.13S46.11,23,45.89,23.78Z" transform="translate(-34.08 -11.73)" fill="#848484"/><path d="M49.9,12.2c.45,1.29.91,2.59,1.34,3.88q1.37,4.07,2.72,8.15l3.45,10.37c.07.21.11.44.18.68a1.27,1.27,0,0,1-.29.08c-1.82,0-3.63,0-5.45,0a2.56,2.56,0,0,1-2.2-1.07,5.73,5.73,0,0,0,.11-.79q0-10.28,0-20.56A4.5,4.5,0,0,1,49.9,12.2Z" transform="translate(-34.08 -11.73)" fill="#919191"/></g><path d="M49.9,12.2a4.5,4.5,0,0,0-.12.73q0,10.28,0,20.56a5.73,5.73,0,0,1-.11.79A10.89,10.89,0,0,1,49,32.9c-.86-2.51-1.68-5-2.52-7.55-.18-.53-.37-1-.55-1.57.22-.75.43-1.5.67-2.24s.49-1.42.73-2.13l1-2.9c.23-.69.45-1.39.69-2.08s.56-1.63.85-2.44Z" transform="translate(-34.08 -11.73)" fill="#3b3b3b" opacity="0.6"/></svg>