<svg id="7e92f0be-5989-444c-8db5-bc0206206892" data-name="Layer 1" xmlns="http://www.w3.org/2000/svg" viewBox="0 0 35.94 35.84"><title>shopping</title><g opacity="0.6"><path d="M27.92,22.35c0-4.53,0-9.06,0-13.58a1.92,1.92,0,0,1,.45-1.06,12.17,12.17,0,0,1,1.49-1.62,1.75,1.75,0,0,1,1.05-.43q5.41,0,10.82,0a1.79,1.79,0,0,1,1.13.5Q51.55,15,60.22,23.9l3.58,3.63-7.39,7.35-8-7.41-6.62,7.36c-1.4-1.23-2.82-2.43-4.19-3.69-2.41-2.2-4.78-4.44-7.18-6.65C29.61,23.75,28.75,23.06,27.92,22.35Zm9.66-9.75a2.41,2.41,0,0,0-2.43-2.33,2.37,2.37,0,0,0-2.37,2.39,2.5,2.5,0,0,0,2.47,2.45A2.58,2.58,0,0,0,37.58,12.6Z" transform="translate(-27.86 -5.63)" fill="#898989"/><path d="M27.92,22.35c.83.71,1.68,1.4,2.49,2.14,2.4,2.21,4.77,4.45,7.18,6.65,1.37,1.26,2.79,2.46,4.19,3.69l.46,0,1,.57a3.28,3.28,0,0,0,.42,1.11c.82.88,1.72,1.68,2.58,2.52l2.23,2.41H28a4,4,0,0,1-.12-.67q0-8.95,0-17.89A5.37,5.37,0,0,1,27.92,22.35Z" transform="translate(-27.86 -5.63)" fill="#e9e9e9"/><path d="M42.25,34.86l-.46,0,6.62-7.36,8,7.41a5.68,5.68,0,0,1-1,.17c-2.08,0-4.17-.12-6.25-.19H42.25Z" transform="translate(-27.86 -5.63)" fill="#ccc"/><path d="M46.66,34.85h2.45c0,2,0,3.91,0,5.86,0,.46,0,.83-.64.74L46.22,39a7.55,7.55,0,0,0,.42-1.49C46.72,36.66,46.66,35.75,46.66,34.85Z" transform="translate(-27.86 -5.63)" fill="#d0d0d0"/><path d="M46.66,34.85c0,.9.05,1.81,0,2.7A7.55,7.55,0,0,1,46.22,39c-.87-.83-1.76-1.64-2.58-2.52a3.28,3.28,0,0,1-.42-1.11l-1-.57Z" transform="translate(-27.86 -5.63)" fill="#dbdbdb"/></g></svg>