<svg id="de462db7-9595-4ffb-b565-052d0330165c" data-name="Layer 1" xmlns="http://www.w3.org/2000/svg" viewBox="0 0 48.96 34.39"><title>video</title><path d="M41.63,40.7c-9.32-.17-12.51-.33-14.47-.73a6.36,6.36,0,0,1-3.32-1.73,7,7,0,0,1-1.57-3,19.83,19.83,0,0,1-.67-4.45,105.73,105.73,0,0,1,0-14.43c.3-2.67.45-5.83,2.44-7.67A6.53,6.53,0,0,1,27.3,7c1.92-.36,10.09-.65,18.55-.65s16.63.29,18.55.65a6.38,6.38,0,0,1,3.82,2.26c1.82,2.86,1.85,6.41,2,9.19.08,1.32.08,8.84,0,10.17-.29,4.39-.52,5.95-1.17,7.56a5.57,5.57,0,0,1-1.34,2.15,6.44,6.44,0,0,1-3.42,1.75c-8.07.61-14.92.74-22.7.61ZM54,23.05c-4.49-2.4-8.79-4.62-13.18-6.93V29.9C45.43,27.39,50.3,25.09,54,23l0,0Z" transform="translate(-21.35 -6.36)" fill="#545454" opacity="0.6"/></svg>