<?xml version="1.0" standalone="no"?>
<!DOCTYPE svg PUBLIC "-//W3C//DTD SVG 20010904//EN"
 "http://www.w3.org/TR/2001/REC-SVG-20010904/DTD/svg10.dtd">
<svg version="1.0" xmlns="http://www.w3.org/2000/svg"
 width="310.000000pt" height="310.000000pt" viewBox="0 0 310.000000 310.000000"
 preserveAspectRatio="xMidYMid meet">
<metadata>
Created by potrace 1.11, written by Peter Selinger 2001-2013
</metadata>
<g transform="translate(0.000000,310.000000) scale(0.100000,-0.100000)"
fill="#000000" stroke="none">
<path d="M254 3091 c-2 -2 -11 -4 -21 -5 -30 -3 -103 -38 -103 -49 0 -6 -3 -7
-6 -4 -8 8 -73 -64 -74 -80 0 -7 -5 -13 -11 -13 -5 0 -8 -4 -5 -9 3 -5 -1 -14
-10 -21 -12 -11 -12 -15 -2 -21 11 -7 11 -9 0 -9 -7 0 -10 -4 -7 -10 3 -5 1
-10 -4 -10 -13 0 -10 -22 4 -32 7 -5 7 -8 0 -8 -13 0 -13 -80 -1 -99 6 -9 5
-12 0 -8 -6 3 -11 -9 -11 -29 -1 -23 3 -32 10 -27 8 5 8 2 0 -8 -10 -12 -10
-18 0 -29 6 -7 7 -10 1 -7 -15 9 -15 -113 0 -132 7 -9 7 -12 0 -9 -6 4 -10 -6
-11 -28 -1 -23 3 -32 10 -27 8 5 8 2 0 -8 -10 -12 -10 -18 0 -29 6 -7 7 -10 1
-7 -15 9 -15 -113 0 -132 7 -9 7 -12 0 -9 -6 4 -10 -6 -11 -28 -1 -23 3 -32
10 -27 8 5 8 2 0 -8 -10 -12 -10 -18 0 -29 6 -7 7 -10 1 -7 -15 9 -15 -113 0
-132 7 -9 7 -12 0 -9 -6 4 -10 -6 -11 -28 -1 -23 3 -32 10 -27 8 5 8 2 0 -8
-10 -12 -10 -18 0 -29 6 -7 7 -10 1 -7 -15 9 -15 -113 0 -132 7 -9 7 -12 0 -9
-6 4 -10 -6 -11 -28 -1 -23 3 -32 10 -27 8 5 8 2 0 -8 -10 -12 -10 -18 0 -29
6 -7 7 -10 1 -7 -15 9 -15 -113 0 -132 7 -9 7 -12 0 -9 -6 4 -10 -6 -11 -28
-1 -23 3 -32 10 -27 8 5 8 2 0 -8 -10 -12 -10 -18 0 -29 6 -7 7 -10 1 -7 -15
9 -15 -113 0 -132 7 -9 7 -12 0 -9 -6 4 -10 -6 -11 -28 -1 -23 3 -32 10 -27 8
5 8 2 0 -8 -10 -12 -10 -18 0 -29 6 -7 7 -10 1 -7 -15 9 -15 -113 0 -132 7 -9
7 -12 0 -9 -6 4 -10 -6 -11 -28 -1 -23 3 -32 10 -27 8 5 8 2 0 -8 -10 -12 -10
-18 0 -29 6 -7 7 -10 1 -7 -15 9 -15 -113 0 -132 7 -9 7 -12 0 -9 -6 4 -10 -6
-11 -28 -1 -23 3 -32 10 -27 8 5 8 2 0 -8 -10 -12 -10 -18 0 -29 6 -7 7 -10 1
-7 -15 9 -15 -113 0 -132 7 -9 7 -12 0 -9 -6 4 -10 -6 -11 -28 -1 -23 3 -32
10 -27 8 5 8 2 0 -8 -10 -12 -10 -18 0 -29 6 -7 7 -10 1 -7 -15 9 -15 -113 0
-132 8 -11 8 -13 -1 -8 -13 8 -12 -30 2 -52 6 -10 4 -12 -4 -6 -10 6 -11 3 -2
-14 7 -12 9 -26 6 -31 -3 -6 -1 -10 4 -10 6 0 11 -8 11 -18 0 -10 9 -28 20
-40 12 -12 19 -22 16 -22 -3 0 7 -13 22 -28 15 -15 30 -26 34 -24 5 2 8 -1 8
-6 0 -11 69 -44 80 -37 4 3 10 -1 12 -7 4 -10 88 -13 382 -13 208 0 380 3 383
8 3 4 10 4 16 -1 14 -10 447 -10 463 0 6 4 14 4 18 0 12 -11 275 -9 268 3 -3
6 0 5 9 -1 10 -7 178 -10 554 -8 297 1 547 4 555 6 40 12 100 41 100 49 0 5 4
9 10 9 15 0 50 33 44 42 -3 4 0 8 6 8 6 0 16 12 23 28 6 15 19 32 27 39 11 9
11 12 2 13 -9 0 -10 5 -3 19 6 10 7 21 4 25 -3 3 -1 6 5 6 7 0 12 10 12 23 0
18 -2 19 -10 7 -6 -9 -10 -10 -10 -3 0 6 4 14 8 17 10 6 10 346 0 362 -4 6 -4
14 0 18 10 11 10 449 0 463 -5 7 -5 14 2 18 7 4 7 13 -1 27 -7 12 -7 18 -1 14
12 -7 11 82 -1 100 -3 6 -3 14 1 18 10 11 10 449 0 463 -5 7 -5 14 2 18 7 4 7
13 -1 27 -7 12 -7 18 -1 14 12 -7 11 88 -1 100 -3 4 -3 12 1 18 10 16 10 449
0 463 -5 7 -5 14 2 18 7 4 7 13 -1 27 -7 12 -7 18 -1 14 12 -7 11 82 -1 100
-3 6 -3 14 0 18 12 11 11 186 0 179 -6 -4 -7 -1 -1 8 10 17 13 69 3 69 -3 0
-5 11 -4 25 2 14 -1 23 -6 19 -5 -3 -9 2 -9 12 0 27 -39 88 -70 109 -16 11
-26 23 -24 27 3 4 -4 8 -15 8 -10 0 -21 5 -23 11 -2 6 -19 13 -37 15 -18 2
-38 7 -44 11 -6 4 -39 8 -74 9 -46 2 -61 -1 -56 -9 5 -8 2 -8 -8 0 -12 10 -18
10 -29 0 -8 -8 -11 -8 -6 0 4 7 -5 11 -28 10 -22 -1 -32 -5 -28 -11 3 -7 0 -7
-9 0 -19 15 -141 15 -132 0 4 -6 0 -6 -8 1 -12 10 -18 10 -29 0 -8 -8 -11 -8
-6 0 4 7 -5 11 -28 10 -22 -1 -32 -5 -28 -11 3 -7 0 -7 -9 0 -19 15 -141 15
-132 0 4 -6 0 -6 -8 1 -12 10 -18 10 -29 0 -8 -8 -11 -8 -6 0 4 7 -5 11 -28
10 -22 -1 -32 -5 -28 -11 3 -7 0 -7 -9 0 -19 15 -141 15 -132 0 4 -6 0 -6 -8
1 -12 10 -18 10 -29 0 -8 -8 -11 -8 -6 0 4 7 -5 11 -28 10 -22 -1 -32 -5 -28
-11 3 -7 0 -7 -9 0 -19 15 -141 15 -132 0 4 -6 0 -6 -8 1 -12 10 -18 10 -29 0
-8 -8 -11 -8 -6 0 4 7 -5 11 -28 10 -22 -1 -32 -5 -28 -11 3 -7 0 -7 -9 0 -19
15 -141 15 -132 0 4 -6 0 -6 -8 1 -12 10 -18 10 -29 0 -8 -8 -11 -8 -6 0 4 7
-5 11 -28 10 -22 -1 -32 -5 -28 -11 3 -7 0 -7 -9 0 -19 15 -141 15 -132 0 4
-6 0 -6 -8 1 -12 10 -18 10 -29 0 -8 -8 -11 -8 -6 0 4 7 -5 11 -28 10 -22 -1
-32 -5 -28 -11 3 -7 0 -7 -9 0 -19 15 -141 15 -132 0 4 -6 0 -6 -8 1 -12 10
-18 10 -29 0 -8 -8 -11 -8 -6 0 4 7 -5 11 -28 10 -22 -1 -32 -5 -28 -11 3 -7
0 -7 -9 0 -19 15 -141 15 -132 0 4 -6 0 -6 -8 1 -12 10 -18 10 -29 0 -8 -8
-11 -8 -6 0 4 7 -5 11 -28 10 -22 -1 -32 -5 -28 -11 3 -7 0 -7 -9 0 -19 15
-141 15 -132 0 4 -6 0 -6 -8 1 -12 10 -18 10 -29 0 -8 -8 -11 -8 -6 0 4 7 -5
11 -28 10 -22 -1 -32 -5 -28 -11 3 -6 -1 -6 -9 1 -19 15 -81 14 -72 -1 4 -6 0
-6 -8 1 -12 10 -18 10 -29 0 -8 -7 -11 -8 -7 -1 5 8 -7 11 -39 10 -25 0 -47
-3 -50 -5z"/>
</g>
</svg>
