<svg id="b39f4073-8d0f-4774-a97e-26e23a046637" data-name="Layer 1" xmlns="http://www.w3.org/2000/svg" viewBox="0 0 56.84 20.72"><title>yogo</title><path d="M46.26,20.79c.68-3.43,2.81-5.37,6.23-5.49,3.86-.13,6.12,2,7,5.76.07-.18.15-.35.2-.53A7.32,7.32,0,0,1,67,15.2a7.2,7.2,0,0,1,7,5.63A7.74,7.74,0,0,1,69.64,30a7.42,7.42,0,0,1-9.94-4.57,1.74,1.74,0,0,0-.34-.67,2.12,2.12,0,0,0-.13.5c0,.94,0,1.89,0,2.83a7.28,7.28,0,0,1-5.82,7.07,9.25,9.25,0,0,1-1.58.17,1.65,1.65,0,0,1-1.9-1.71,1.65,1.65,0,0,1,1.8-1.91,3.77,3.77,0,0,0,3-1.43,10.3,10.3,0,0,0,.57-.86,23.94,23.94,0,0,1-2.93.53,5.36,5.36,0,0,1-2.8-.72,5.21,5.21,0,0,1-2.11-1.85c-.49-.82-.85-1.73-1.31-2.68a3.23,3.23,0,0,0-.26.54,7.43,7.43,0,0,1-14.45-.9,7.59,7.59,0,0,1,5.19-8.84,7.32,7.32,0,0,1,9.24,4.83,3.12,3.12,0,0,0,.21.44Zm20.49,6.15a3.88,3.88,0,0,0,3.85-4,3.88,3.88,0,0,0-3.79-4.07,3.81,3.81,0,0,0-3.84,4A3.92,3.92,0,0,0,66.75,26.94ZM35,22.84a3.93,3.93,0,0,0,3.77,4.1,3.89,3.89,0,0,0,3.85-4,3.89,3.89,0,0,0-3.78-4.07A3.82,3.82,0,0,0,35,22.84Zm20.77-.35-.07,0c0-.24,0-.47,0-.71a2.87,2.87,0,0,0-2.86-2.89,2.83,2.83,0,0,0-2.94,2.69,13.18,13.18,0,0,0,0,2,2.81,2.81,0,0,0,2.42,2.75,2.87,2.87,0,0,0,3.07-1.89A12.47,12.47,0,0,0,55.75,22.49Z" transform="translate(-17.42 -15.19)" fill="#333"/><path d="M26.44,29.9c-.28.07-.45.1-.6.16a6,6,0,0,1-7.95-3.51,7.11,7.11,0,0,1-.44-2.24c-.06-2.3,0-4.6,0-6.91A1.49,1.49,0,0,1,19,15.78c1.16,0,1.93.52,2,1.55,0,1.92,0,3.84,0,5.76a8.59,8.59,0,0,0,.15,1.67,2.61,2.61,0,0,0,2,2.12A2.65,2.65,0,0,0,26,26a3.49,3.49,0,0,0,.87-2.44c0-2,0-4,0-6a1.5,1.5,0,0,1,.93-1.56,1.85,1.85,0,0,1,2.07.24,2.32,2.32,0,0,1,.56,1,3.46,3.46,0,0,1,.1,1.05c0,3.45,0,6.91,0,10.36a7.43,7.43,0,0,1-7.61,7.36,1.58,1.58,0,0,1-1.74-1.68c0-1.23.5-1.9,1.66-1.93a3.84,3.84,0,0,0,3.42-1.85A3.66,3.66,0,0,0,26.44,29.9Z" transform="translate(-17.42 -15.19)" fill="#333"/></svg>